<svg xmlns="http://www.w3.org/2000/svg" width="770" height="230" viewBox="0 0 770 230">
      <rect width="770" height="230" fill="#fff" rx="6"/>
      
    <rect x="560" y="218" width="10" height="10" fill="#43a047" rx="2"/>
    <text x="574" y="227" font-size="10" fill="#666">Passed</text>
    <rect x="620" y="218" width="10" height="10" fill="#fdd835" rx="2"/>
    <text x="634" y="227" font-size="10" fill="#666">Warning</text>
    <rect x="700" y="218" width="10" height="10" fill="#e53935" rx="2"/>
    <text x="714" y="227" font-size="10" fill="#666">Failed</text>
  
      <text x="35" y="184" text-anchor="end" font-size="10" fill="#666">0</text><text x="35" y="99" text-anchor="end" font-size="10" fill="#666">8</text><text x="35" y="14" text-anchor="end" font-size="10" fill="#666">16</text>
      <line x1="40" y1="180" x2="770" y2="180" stroke="#ccc" stroke-width="1"/>
      <rect x="40" y="10" width="7" height="170" fill="#43a047" rx="1"/><rect x="48" y="10" width="7" height="170" fill="#43a047" rx="1"/><rect x="56" y="10" width="7" height="170" fill="#43a047" rx="1"/><rect x="64" y="10" width="7" height="170" fill="#43a047" rx="1"/><rect x="72" y="10" width="7" height="170" fill="#43a047" rx="1"/><rect x="80" y="10" width="7" height="170" fill="#43a047" rx="1"/><rect x="88" y="10" width="7" height="170" fill="#43a047" rx="1"/><rect x="96" y="10" width="7" height="170" fill="#43a047" rx="1"/><rect x="104" y="10" width="7" height="170" fill="#43a047" rx="1"/><rect x="112" y="10" width="7" height="170" fill="#43a047" rx="1"/><rect x="120" y="10" width="7" height="170" fill="#43a047" rx="1"/><rect x="128" y="10" width="7" height="170" fill="#43a047" rx="1"/><rect x="136" y="10" width="7" height="170" fill="#43a047" rx="1"/><rect x="144" y="10" width="7" height="170" fill="#43a047" rx="1"/><rect x="152" y="10" width="7" height="170" fill="#43a047" rx="1"/><rect x="160" y="10" width="7" height="170" fill="#43a047" rx="1"/><rect x="168" y="10" width="7" height="170" fill="#43a047" rx="1"/><rect x="176" y="10" width="7" height="170" fill="#43a047" rx="1"/><rect x="184" y="10" width="7" height="170" fill="#43a047" rx="1"/><rect x="192" y="10" width="7" height="170" fill="#43a047" rx="1"/><rect x="200" y="10" width="7" height="170" fill="#43a047" rx="1"/><rect x="208" y="10" width="7" height="170" fill="#43a047" rx="1"/><rect x="216" y="10" width="7" height="170" fill="#43a047" rx="1"/><rect x="224" y="10" width="7" height="170" fill="#43a047" rx="1"/><rect x="232" y="10" width="7" height="170" fill="#43a047" rx="1"/><rect x="240" y="10" width="7" height="170" fill="#43a047" rx="1"/><rect x="248" y="10" width="7" height="170" fill="#43a047" rx="1"/><rect x="256" y="10" width="7" height="170" fill="#43a047" rx="1"/><rect x="264" y="10" width="7" height="170" fill="#43a047" rx="1"/><rect x="272" y="10" width="7" height="170" fill="#43a047" rx="1"/><rect x="280" y="10" width="7" height="170" fill="#43a047" rx="1"/><rect x="288" y="10" width="7" height="170" fill="#43a047" rx="1"/><rect x="296" y="10" width="7" height="170" fill="#43a047" rx="1"/><rect x="304" y="10" width="7" height="170" fill="#43a047" rx="1"/><rect x="312" y="10" width="7" height="170" fill="#43a047" rx="1"/><rect x="320" y="10" width="7" height="170" fill="#43a047" rx="1"/><rect x="328" y="10" width="7" height="170" fill="#43a047" rx="1"/><rect x="336" y="10" width="7" height="170" fill="#43a047" rx="1"/><rect x="344" y="10" width="7" height="170" fill="#43a047" rx="1"/><rect x="352" y="10" width="7" height="170" fill="#43a047" rx="1"/><rect x="360" y="10" width="7" height="170" fill="#43a047" rx="1"/><rect x="368" y="10" width="7" height="170" fill="#43a047" rx="1"/><rect x="376" y="10" width="7" height="170" fill="#43a047" rx="1"/><rect x="384" y="10" width="7" height="170" fill="#43a047" rx="1"/><rect x="392" y="10" width="7" height="170" fill="#43a047" rx="1"/><rect x="400" y="10" width="7" height="170" fill="#43a047" rx="1"/><rect x="408" y="10" width="7" height="170" fill="#43a047" rx="1"/><rect x="416" y="10" width="7" height="170" fill="#43a047" rx="1"/><rect x="424" y="10" width="7" height="170" fill="#43a047" rx="1"/><rect x="432" y="10" width="7" height="170" fill="#43a047" rx="1"/><rect x="440" y="10" width="7" height="170" fill="#43a047" rx="1"/><rect x="448" y="10" width="7" height="170" fill="#43a047" rx="1"/><rect x="456" y="10" width="7" height="170" fill="#43a047" rx="1"/><rect x="464" y="148.125" width="7" height="31.875" fill="#fdd835" rx="1"/><rect x="464" y="10" width="7" height="138.125" fill="#43a047" rx="1"/><rect x="472" y="169.375" width="7" height="10.625" fill="#fdd835" rx="1"/><rect x="472" y="10" width="7" height="159.375" fill="#43a047" rx="1"/><rect x="480" y="10" width="7" height="170" fill="#43a047" rx="1"/><rect x="488" y="10" width="7" height="170" fill="#43a047" rx="1"/><rect x="496" y="10" width="7" height="170" fill="#43a047" rx="1"/><rect x="504" y="10" width="7" height="170" fill="#43a047" rx="1"/><rect x="512" y="10" width="7" height="170" fill="#43a047" rx="1"/><rect x="520" y="10" width="7" height="170" fill="#43a047" rx="1"/><rect x="528" y="10" width="7" height="170" fill="#43a047" rx="1"/><rect x="536" y="169.375" width="7" height="10.625" fill="#fdd835" rx="1"/><rect x="536" y="10" width="7" height="159.375" fill="#43a047" rx="1"/><rect x="544" y="10" width="7" height="170" fill="#43a047" rx="1"/><rect x="552" y="10" width="7" height="170" fill="#43a047" rx="1"/><rect x="560" y="10" width="7" height="170" fill="#43a047" rx="1"/><rect x="568" y="10" width="7" height="170" fill="#43a047" rx="1"/><rect x="576" y="10" width="7" height="170" fill="#43a047" rx="1"/><rect x="584" y="10" width="7" height="170" fill="#43a047" rx="1"/><rect x="592" y="10" width="7" height="170" fill="#43a047" rx="1"/><rect x="600" y="10" width="7" height="170" fill="#43a047" rx="1"/><rect x="608" y="10" width="7" height="170" fill="#43a047" rx="1"/><rect x="616" y="10" width="7" height="170" fill="#43a047" rx="1"/><rect x="624" y="10" width="7" height="170" fill="#43a047" rx="1"/><rect x="632" y="10" width="7" height="170" fill="#43a047" rx="1"/><rect x="640" y="10" width="7" height="170" fill="#43a047" rx="1"/><rect x="648" y="10" width="7" height="170" fill="#43a047" rx="1"/><rect x="656" y="10" width="7" height="170" fill="#43a047" rx="1"/><rect x="664" y="10" width="7" height="170" fill="#43a047" rx="1"/><rect x="672" y="10" width="7" height="170" fill="#43a047" rx="1"/><rect x="680" y="10" width="7" height="170" fill="#43a047" rx="1"/><rect x="688" y="10" width="7" height="170" fill="#43a047" rx="1"/><rect x="696" y="10" width="7" height="170" fill="#43a047" rx="1"/><rect x="704" y="10" width="7" height="170" fill="#43a047" rx="1"/><rect x="712" y="10" width="7" height="170" fill="#43a047" rx="1"/><rect x="720" y="10" width="7" height="170" fill="#43a047" rx="1"/><rect x="728" y="10" width="7" height="170" fill="#43a047" rx="1"/><rect x="736" y="10" width="7" height="170" fill="#43a047" rx="1"/><rect x="744" y="10" width="7" height="170" fill="#43a047" rx="1"/><rect x="752" y="10" width="7" height="170" fill="#43a047" rx="1"/>
      <line x1="44.0" y1="180" x2="44.0" y2="184" stroke="#bbb" stroke-width="1"/><text x="44.0" y="194" text-anchor="middle" font-size="9" fill="#888">Apr 22</text><line x1="164.0" y1="180" x2="164.0" y2="184" stroke="#bbb" stroke-width="1"/><text x="164.0" y="194" text-anchor="middle" font-size="9" fill="#888">Apr 24</text><line x1="284.0" y1="180" x2="284.0" y2="184" stroke="#bbb" stroke-width="1"/><text x="284.0" y="194" text-anchor="middle" font-size="9" fill="#888">Apr 24</text><line x1="404.0" y1="180" x2="404.0" y2="184" stroke="#bbb" stroke-width="1"/><text x="404.0" y="194" text-anchor="middle" font-size="9" fill="#888">Apr 25</text><line x1="524.0" y1="180" x2="524.0" y2="184" stroke="#bbb" stroke-width="1"/><text x="524.0" y="194" text-anchor="middle" font-size="9" fill="#888">Apr 25</text><line x1="644.0" y1="180" x2="644.0" y2="184" stroke="#bbb" stroke-width="1"/><text x="644.0" y="194" text-anchor="middle" font-size="9" fill="#888">Apr 26</text>
    </svg>