<svg xmlns="http://www.w3.org/2000/svg" width="380" height="110" viewBox="0 0 380 110">
      <rect width="380" height="110" fill="#fafafa" rx="4"/>
      <text x="190" y="13" text-anchor="middle" font-size="10" font-weight="bold" fill="#333">portfolio</text>
      <line x1="30" y1="22" x2="30" y2="90" stroke="#e0e0e0" stroke-width="1"/>
      <line x1="30" y1="90" x2="374" y2="90" stroke="#e0e0e0" stroke-width="1"/>
      <line x1="30" y1="22" x2="374" y2="22" stroke="#f0f0f0" stroke-width="1"/>
      <text x="27" y="94" text-anchor="end" font-size="8" fill="#888">0</text><text x="27" y="26" text-anchor="end" font-size="8" fill="#888">10</text>
      <polygon points="31.9,22.0 35.7,22.0 39.6,22.0 43.4,22.0 47.2,22.0 51.0,22.0 54.8,22.0 58.7,22.0 62.5,22.0 66.3,22.0 70.1,22.0 74.0,22.0 77.8,22.0 81.6,22.0 85.4,22.0 89.2,22.0 93.1,22.0 96.9,22.0 100.7,22.0 104.5,22.0 108.4,22.0 112.2,22.0 116.0,22.0 119.8,22.0 123.6,22.0 127.5,22.0 131.3,22.0 135.1,22.0 138.9,22.0 142.8,22.0 146.6,22.0 150.4,22.0 154.2,22.0 158.0,22.0 161.9,22.0 165.7,22.0 169.5,22.0 173.3,22.0 177.2,22.0 181.0,22.0 184.8,22.0 188.6,22.0 192.4,22.0 196.3,22.0 200.1,22.0 203.9,22.0 207.7,22.0 211.6,22.0 215.4,22.0 219.2,22.0 223.0,22.0 226.8,22.0 230.7,22.0 234.5,22.0 238.3,22.0 242.1,22.0 246.0,22.0 249.8,22.0 253.6,22.0 257.4,22.0 261.2,22.0 265.1,22.0 268.9,22.0 272.7,22.0 276.5,22.0 280.4,28.8 284.2,28.8 288.0,28.8 291.8,28.8 295.6,28.8 299.5,28.8 303.3,28.8 307.1,28.8 310.9,28.8 314.8,28.8 318.6,28.8 322.4,28.8 326.2,28.8 330.0,28.8 333.9,28.8 337.7,28.8 341.5,28.8 345.3,28.8 349.2,28.8 353.0,28.8 356.8,28.8 360.6,28.8 364.4,28.8 368.3,28.8 372.1,28.8 372.1,90 31.9,90" fill="#43a047" opacity="0.15"/>
      <polyline points="31.9,22.0 35.7,22.0 39.6,22.0 43.4,22.0 47.2,22.0 51.0,22.0 54.8,22.0 58.7,22.0 62.5,22.0 66.3,22.0 70.1,22.0 74.0,22.0 77.8,22.0 81.6,22.0 85.4,22.0 89.2,22.0 93.1,22.0 96.9,22.0 100.7,22.0 104.5,22.0 108.4,22.0 112.2,22.0 116.0,22.0 119.8,22.0 123.6,22.0 127.5,22.0 131.3,22.0 135.1,22.0 138.9,22.0 142.8,22.0 146.6,22.0 150.4,22.0 154.2,22.0 158.0,22.0 161.9,22.0 165.7,22.0 169.5,22.0 173.3,22.0 177.2,22.0 181.0,22.0 184.8,22.0 188.6,22.0 192.4,22.0 196.3,22.0 200.1,22.0 203.9,22.0 207.7,22.0 211.6,22.0 215.4,22.0 219.2,22.0 223.0,22.0 226.8,22.0 230.7,22.0 234.5,22.0 238.3,22.0 242.1,22.0 246.0,22.0 249.8,22.0 253.6,22.0 257.4,22.0 261.2,22.0 265.1,22.0 268.9,22.0 272.7,22.0 276.5,22.0 280.4,28.8 284.2,28.8 288.0,28.8 291.8,28.8 295.6,28.8 299.5,28.8 303.3,28.8 307.1,28.8 310.9,28.8 314.8,28.8 318.6,28.8 322.4,28.8 326.2,28.8 330.0,28.8 333.9,28.8 337.7,28.8 341.5,28.8 345.3,28.8 349.2,28.8 353.0,28.8 356.8,28.8 360.6,28.8 364.4,28.8 368.3,28.8 372.1,28.8" fill="none" stroke="#43a047" stroke-width="1.5" stroke-linejoin="round"/>
      <polyline points="280.4,83.2 284.2,83.2 288.0,83.2 291.8,83.2 295.6,83.2 299.5,83.2 303.3,83.2 307.1,83.2 310.9,83.2 314.8,83.2 318.6,83.2 322.4,83.2 326.2,83.2 330.0,83.2 333.9,83.2 337.7,83.2 341.5,83.2 345.3,83.2 349.2,83.2 353.0,83.2 356.8,83.2 360.6,83.2 364.4,83.2 368.3,83.2 372.1,83.2" fill="none" stroke="#e53935" stroke-width="1.5" stroke-linejoin="round"/>
    </svg>