<svg xmlns="http://www.w3.org/2000/svg" width="380" height="110" viewBox="0 0 380 110">
      <rect width="380" height="110" fill="#fafafa" rx="4"/>
      <text x="190" y="13" text-anchor="middle" font-size="10" font-weight="bold" fill="#333">portfolio</text>
      <line x1="30" y1="22" x2="30" y2="90" stroke="#e0e0e0" stroke-width="1"/>
      <line x1="30" y1="90" x2="374" y2="90" stroke="#e0e0e0" stroke-width="1"/>
      <line x1="30" y1="22" x2="374" y2="22" stroke="#f0f0f0" stroke-width="1"/>
      <text x="27" y="94" text-anchor="end" font-size="8" fill="#888">0</text><text x="27" y="26" text-anchor="end" font-size="8" fill="#888">22</text>
      <polygon points="31.9,22.0 35.7,37.5 39.6,37.5 43.4,37.5 47.2,37.5 51.0,37.5 54.8,37.5 58.7,37.5 62.5,37.5 66.3,22.0 70.1,22.0 74.0,37.5 77.8,37.5 81.6,37.5 85.4,37.5 89.2,37.5 93.1,37.5 96.9,37.5 100.7,37.5 104.5,37.5 108.4,37.5 112.2,40.5 116.0,37.5 119.8,37.5 123.6,37.5 127.5,22.0 131.3,22.0 135.1,22.0 138.9,22.0 142.8,22.0 146.6,22.0 150.4,22.0 154.2,25.1 158.0,22.0 161.9,22.0 165.7,25.1 169.5,22.0 173.3,22.0 177.2,22.0 181.0,22.0 184.8,25.1 188.6,25.1 192.4,22.0 196.3,22.0 200.1,22.0 203.9,22.0 207.7,22.0 211.6,22.0 215.4,22.0 219.2,22.0 223.0,22.0 226.8,22.0 230.7,22.0 234.5,22.0 238.3,22.0 242.1,22.0 246.0,22.0 249.8,22.0 253.6,22.0 257.4,22.0 261.2,22.0 265.1,22.0 268.9,25.1 272.7,22.0 276.5,22.0 280.4,22.0 284.2,22.0 288.0,22.0 291.8,22.0 295.6,22.0 299.5,22.0 303.3,25.1 307.1,22.0 310.9,22.0 314.8,22.0 318.6,22.0 322.4,25.1 326.2,22.0 330.0,22.0 333.9,22.0 337.7,22.0 341.5,22.0 345.3,22.0 349.2,22.0 353.0,22.0 356.8,22.0 360.6,25.1 364.4,25.1 368.3,25.1 372.1,22.0 372.1,90 31.9,90" fill="#43a047" opacity="0.15"/>
      <polyline points="31.9,22.0 35.7,37.5 39.6,37.5 43.4,37.5 47.2,37.5 51.0,37.5 54.8,37.5 58.7,37.5 62.5,37.5 66.3,22.0 70.1,22.0 74.0,37.5 77.8,37.5 81.6,37.5 85.4,37.5 89.2,37.5 93.1,37.5 96.9,37.5 100.7,37.5 104.5,37.5 108.4,37.5 112.2,40.5 116.0,37.5 119.8,37.5 123.6,37.5 127.5,22.0 131.3,22.0 135.1,22.0 138.9,22.0 142.8,22.0 146.6,22.0 150.4,22.0 154.2,25.1 158.0,22.0 161.9,22.0 165.7,25.1 169.5,22.0 173.3,22.0 177.2,22.0 181.0,22.0 184.8,25.1 188.6,25.1 192.4,22.0 196.3,22.0 200.1,22.0 203.9,22.0 207.7,22.0 211.6,22.0 215.4,22.0 219.2,22.0 223.0,22.0 226.8,22.0 230.7,22.0 234.5,22.0 238.3,22.0 242.1,22.0 246.0,22.0 249.8,22.0 253.6,22.0 257.4,22.0 261.2,22.0 265.1,22.0 268.9,25.1 272.7,22.0 276.5,22.0 280.4,22.0 284.2,22.0 288.0,22.0 291.8,22.0 295.6,22.0 299.5,22.0 303.3,25.1 307.1,22.0 310.9,22.0 314.8,22.0 318.6,22.0 322.4,25.1 326.2,22.0 330.0,22.0 333.9,22.0 337.7,22.0 341.5,22.0 345.3,22.0 349.2,22.0 353.0,22.0 356.8,22.0 360.6,25.1 364.4,25.1 368.3,25.1 372.1,22.0" fill="none" stroke="#43a047" stroke-width="1.5" stroke-linejoin="round"/>
      <polyline points="35.7,80.7 39.6,80.7 43.4,80.7 47.2,80.7 51.0,80.7 54.8,80.7 58.7,80.7 62.5,80.7 74.0,80.7 77.8,80.7 81.6,80.7 85.4,80.7 89.2,80.7 93.1,80.7 96.9,80.7 100.7,80.7 104.5,80.7 108.4,80.7 112.2,77.6 116.0,80.7 119.8,80.7 123.6,80.7 154.2,86.9 165.7,86.9 184.8,86.9 188.6,86.9 268.9,86.9 303.3,86.9 322.4,86.9 360.6,86.9 364.4,86.9 368.3,86.9" fill="none" stroke="#e53935" stroke-width="1.5" stroke-linejoin="round"/>
    </svg>