<svg xmlns="http://www.w3.org/2000/svg" width="380" height="110" viewBox="0 0 380 110">
      <rect width="380" height="110" fill="#fafafa" rx="4"/>
      <text x="190" y="13" text-anchor="middle" font-size="10" font-weight="bold" fill="#333">portfolio</text>
      <line x1="30" y1="22" x2="30" y2="90" stroke="#e0e0e0" stroke-width="1"/>
      <line x1="30" y1="90" x2="374" y2="90" stroke="#e0e0e0" stroke-width="1"/>
      <line x1="30" y1="22" x2="374" y2="22" stroke="#f0f0f0" stroke-width="1"/>
      <text x="27" y="94" text-anchor="end" font-size="8" fill="#888">0</text><text x="27" y="26" text-anchor="end" font-size="8" fill="#888">10</text>
      <polygon points="31.9,22.0 35.7,22.0 39.6,22.0 43.4,22.0 47.2,22.0 51.0,22.0 54.8,22.0 58.7,22.0 62.5,22.0 66.3,22.0 70.1,22.0 74.0,22.0 77.8,22.0 81.6,22.0 85.4,22.0 89.2,22.0 93.1,22.0 96.9,22.0 100.7,22.0 104.5,22.0 108.4,22.0 112.2,22.0 116.0,22.0 119.8,22.0 123.6,28.8 127.5,28.8 131.3,28.8 135.1,28.8 138.9,28.8 142.8,28.8 146.6,28.8 150.4,28.8 154.2,28.8 158.0,28.8 161.9,28.8 165.7,28.8 169.5,28.8 173.3,28.8 177.2,28.8 181.0,28.8 184.8,28.8 188.6,28.8 192.4,28.8 196.3,28.8 200.1,28.8 203.9,28.8 207.7,28.8 211.6,28.8 215.4,28.8 219.2,28.8 223.0,28.8 226.8,28.8 230.7,28.8 234.5,28.8 238.3,22.0 242.1,22.0 246.0,22.0 249.8,22.0 253.6,22.0 257.4,22.0 261.2,22.0 265.1,22.0 268.9,22.0 272.7,22.0 276.5,22.0 280.4,22.0 284.2,22.0 288.0,22.0 291.8,22.0 295.6,22.0 299.5,22.0 303.3,22.0 307.1,22.0 310.9,22.0 314.8,22.0 318.6,22.0 322.4,22.0 326.2,22.0 330.0,22.0 333.9,22.0 337.7,22.0 341.5,22.0 345.3,22.0 349.2,22.0 353.0,22.0 356.8,22.0 360.6,22.0 364.4,22.0 368.3,22.0 372.1,22.0 372.1,90 31.9,90" fill="#43a047" opacity="0.15"/>
      <polyline points="31.9,22.0 35.7,22.0 39.6,22.0 43.4,22.0 47.2,22.0 51.0,22.0 54.8,22.0 58.7,22.0 62.5,22.0 66.3,22.0 70.1,22.0 74.0,22.0 77.8,22.0 81.6,22.0 85.4,22.0 89.2,22.0 93.1,22.0 96.9,22.0 100.7,22.0 104.5,22.0 108.4,22.0 112.2,22.0 116.0,22.0 119.8,22.0 123.6,28.8 127.5,28.8 131.3,28.8 135.1,28.8 138.9,28.8 142.8,28.8 146.6,28.8 150.4,28.8 154.2,28.8 158.0,28.8 161.9,28.8 165.7,28.8 169.5,28.8 173.3,28.8 177.2,28.8 181.0,28.8 184.8,28.8 188.6,28.8 192.4,28.8 196.3,28.8 200.1,28.8 203.9,28.8 207.7,28.8 211.6,28.8 215.4,28.8 219.2,28.8 223.0,28.8 226.8,28.8 230.7,28.8 234.5,28.8 238.3,22.0 242.1,22.0 246.0,22.0 249.8,22.0 253.6,22.0 257.4,22.0 261.2,22.0 265.1,22.0 268.9,22.0 272.7,22.0 276.5,22.0 280.4,22.0 284.2,22.0 288.0,22.0 291.8,22.0 295.6,22.0 299.5,22.0 303.3,22.0 307.1,22.0 310.9,22.0 314.8,22.0 318.6,22.0 322.4,22.0 326.2,22.0 330.0,22.0 333.9,22.0 337.7,22.0 341.5,22.0 345.3,22.0 349.2,22.0 353.0,22.0 356.8,22.0 360.6,22.0 364.4,22.0 368.3,22.0 372.1,22.0" fill="none" stroke="#43a047" stroke-width="1.5" stroke-linejoin="round"/>
      <polyline points="123.6,83.2 127.5,83.2 131.3,83.2 135.1,83.2 138.9,83.2 142.8,83.2 146.6,83.2 150.4,83.2 154.2,83.2 158.0,83.2 161.9,83.2 165.7,83.2 169.5,83.2 173.3,83.2 177.2,83.2 181.0,83.2 184.8,83.2 188.6,83.2 192.4,83.2 196.3,83.2 200.1,83.2 203.9,83.2 207.7,83.2 211.6,83.2 215.4,83.2 219.2,83.2 223.0,83.2 226.8,83.2 230.7,83.2 234.5,83.2" fill="none" stroke="#e53935" stroke-width="1.5" stroke-linejoin="round"/>
    </svg>