<svg xmlns="http://www.w3.org/2000/svg" width="380" height="110" viewBox="0 0 380 110">
      <rect width="380" height="110" fill="#fafafa" rx="4"/>
      <text x="190" y="13" text-anchor="middle" font-size="10" font-weight="bold" fill="#333">portfolio</text>
      <line x1="30" y1="22" x2="30" y2="90" stroke="#e0e0e0" stroke-width="1"/>
      <line x1="30" y1="90" x2="374" y2="90" stroke="#e0e0e0" stroke-width="1"/>
      <line x1="30" y1="22" x2="374" y2="22" stroke="#f0f0f0" stroke-width="1"/>
      <text x="27" y="94" text-anchor="end" font-size="8" fill="#888">0</text><text x="27" y="26" text-anchor="end" font-size="8" fill="#888">11</text>
      <polygon points="31.9,28.2 35.7,28.2 39.6,28.2 43.4,28.2 47.2,28.2 51.0,28.2 54.8,28.2 58.7,28.2 62.5,28.2 66.3,28.2 70.1,28.2 74.0,28.2 77.8,28.2 81.6,28.2 85.4,28.2 89.2,28.2 93.1,28.2 96.9,28.2 100.7,28.2 104.5,28.2 108.4,28.2 112.2,28.2 116.0,28.2 119.8,28.2 123.6,28.2 127.5,28.2 131.3,28.2 135.1,28.2 138.9,28.2 142.8,28.2 146.6,28.2 150.4,28.2 154.2,28.2 158.0,28.2 161.9,28.2 165.7,28.2 169.5,28.2 173.3,28.2 177.2,28.2 181.0,28.2 184.8,28.2 188.6,28.2 192.4,28.2 196.3,28.2 200.1,28.2 203.9,28.2 207.7,28.2 211.6,28.2 215.4,28.2 219.2,28.2 223.0,28.2 226.8,28.2 230.7,28.2 234.5,28.2 238.3,28.2 242.1,28.2 246.0,28.2 249.8,28.2 253.6,28.2 257.4,28.2 261.2,28.2 265.1,28.2 268.9,28.2 272.7,28.2 276.5,28.2 280.4,28.2 284.2,28.2 288.0,28.2 291.8,28.2 295.6,28.2 299.5,28.2 303.3,28.2 307.1,28.2 310.9,28.2 314.8,28.2 318.6,28.2 322.4,28.2 326.2,28.2 330.0,28.2 333.9,28.2 337.7,28.2 341.5,28.2 345.3,28.2 349.2,28.2 353.0,28.2 356.8,28.2 360.6,28.2 364.4,28.2 368.3,28.2 372.1,28.2 372.1,90 31.9,90" fill="#43a047" opacity="0.15"/>
      <polyline points="31.9,28.2 35.7,28.2 39.6,28.2 43.4,28.2 47.2,28.2 51.0,28.2 54.8,28.2 58.7,28.2 62.5,28.2 66.3,28.2 70.1,28.2 74.0,28.2 77.8,28.2 81.6,28.2 85.4,28.2 89.2,28.2 93.1,28.2 96.9,28.2 100.7,28.2 104.5,28.2 108.4,28.2 112.2,28.2 116.0,28.2 119.8,28.2 123.6,28.2 127.5,28.2 131.3,28.2 135.1,28.2 138.9,28.2 142.8,28.2 146.6,28.2 150.4,28.2 154.2,28.2 158.0,28.2 161.9,28.2 165.7,28.2 169.5,28.2 173.3,28.2 177.2,28.2 181.0,28.2 184.8,28.2 188.6,28.2 192.4,28.2 196.3,28.2 200.1,28.2 203.9,28.2 207.7,28.2 211.6,28.2 215.4,28.2 219.2,28.2 223.0,28.2 226.8,28.2 230.7,28.2 234.5,28.2 238.3,28.2 242.1,28.2 246.0,28.2 249.8,28.2 253.6,28.2 257.4,28.2 261.2,28.2 265.1,28.2 268.9,28.2 272.7,28.2 276.5,28.2 280.4,28.2 284.2,28.2 288.0,28.2 291.8,28.2 295.6,28.2 299.5,28.2 303.3,28.2 307.1,28.2 310.9,28.2 314.8,28.2 318.6,28.2 322.4,28.2 326.2,28.2 330.0,28.2 333.9,28.2 337.7,28.2 341.5,28.2 345.3,28.2 349.2,28.2 353.0,28.2 356.8,28.2 360.6,28.2 364.4,28.2 368.3,28.2 372.1,28.2" fill="none" stroke="#43a047" stroke-width="1.5" stroke-linejoin="round"/>
      <polyline points="31.9,83.8 35.7,83.8 39.6,83.8 43.4,83.8 47.2,83.8 51.0,83.8 54.8,83.8 58.7,83.8 62.5,83.8 66.3,83.8 70.1,83.8 74.0,83.8 77.8,83.8 81.6,83.8 85.4,83.8 89.2,83.8 93.1,83.8 96.9,83.8 100.7,83.8 104.5,83.8 108.4,83.8 112.2,83.8 116.0,83.8 119.8,83.8 123.6,83.8 127.5,83.8 131.3,83.8 135.1,83.8 138.9,83.8 142.8,83.8 146.6,83.8 150.4,83.8 154.2,83.8 158.0,83.8 161.9,83.8 165.7,83.8 169.5,83.8 173.3,83.8 177.2,83.8 181.0,83.8 184.8,83.8 188.6,83.8 192.4,83.8 196.3,83.8 200.1,83.8 203.9,83.8 207.7,83.8 211.6,83.8 215.4,83.8 219.2,83.8 223.0,83.8 226.8,83.8 230.7,83.8" fill="none" stroke="#e53935" stroke-width="1.5" stroke-linejoin="round"/>
    </svg>