<svg xmlns="http://www.w3.org/2000/svg" width="380" height="110" viewBox="0 0 380 110">
      <rect width="380" height="110" fill="#fafafa" rx="4"/>
      <text x="190" y="13" text-anchor="middle" font-size="10" font-weight="bold" fill="#333">admin-dashboard-next</text>
      <line x1="30" y1="22" x2="30" y2="90" stroke="#e0e0e0" stroke-width="1"/>
      <line x1="30" y1="90" x2="374" y2="90" stroke="#e0e0e0" stroke-width="1"/>
      <line x1="30" y1="22" x2="374" y2="22" stroke="#f0f0f0" stroke-width="1"/>
      <text x="27" y="94" text-anchor="end" font-size="8" fill="#888">0</text><text x="27" y="26" text-anchor="end" font-size="8" fill="#888">6</text>
      <polygon points="31.9,44.7 35.7,44.7 39.6,44.7 43.4,44.7 47.2,44.7 51.0,44.7 54.8,44.7 58.7,56.0 62.5,56.0 66.3,56.0 70.1,56.0 74.0,56.0 77.8,56.0 81.6,56.0 85.4,56.0 89.2,56.0 93.1,56.0 96.9,56.0 100.7,56.0 104.5,67.3 108.4,56.0 112.2,56.0 116.0,56.0 119.8,56.0 123.6,56.0 127.5,56.0 131.3,56.0 135.1,90.0 138.9,90.0 142.8,90.0 146.6,90.0 150.4,90.0 154.2,90.0 158.0,90.0 161.9,90.0 165.7,90.0 169.5,90.0 173.3,78.7 177.2,78.7 181.0,67.3 184.8,67.3 188.6,67.3 192.4,67.3 196.3,67.3 200.1,67.3 203.9,67.3 207.7,67.3 211.6,67.3 215.4,67.3 219.2,67.3 223.0,67.3 226.8,67.3 230.7,67.3 234.5,67.3 238.3,67.3 242.1,67.3 246.0,67.3 249.8,67.3 253.6,67.3 257.4,67.3 261.2,67.3 265.1,67.3 268.9,67.3 272.7,67.3 276.5,67.3 280.4,67.3 284.2,67.3 288.0,67.3 291.8,67.3 295.6,67.3 299.5,67.3 303.3,67.3 307.1,67.3 310.9,67.3 314.8,67.3 318.6,67.3 322.4,67.3 326.2,67.3 330.0,67.3 333.9,67.3 337.7,67.3 341.5,67.3 345.3,67.3 349.2,67.3 353.0,67.3 356.8,67.3 360.6,67.3 364.4,67.3 368.3,67.3 372.1,67.3 372.1,90 31.9,90" fill="#43a047" opacity="0.15"/>
      <polyline points="31.9,44.7 35.7,44.7 39.6,44.7 43.4,44.7 47.2,44.7 51.0,44.7 54.8,44.7 58.7,56.0 62.5,56.0 66.3,56.0 70.1,56.0 74.0,56.0 77.8,56.0 81.6,56.0 85.4,56.0 89.2,56.0 93.1,56.0 96.9,56.0 100.7,56.0 104.5,67.3 108.4,56.0 112.2,56.0 116.0,56.0 119.8,56.0 123.6,56.0 127.5,56.0 131.3,56.0 135.1,90.0 138.9,90.0 142.8,90.0 146.6,90.0 150.4,90.0 154.2,90.0 158.0,90.0 161.9,90.0 165.7,90.0 169.5,90.0 173.3,78.7 177.2,78.7 181.0,67.3 184.8,67.3 188.6,67.3 192.4,67.3 196.3,67.3 200.1,67.3 203.9,67.3 207.7,67.3 211.6,67.3 215.4,67.3 219.2,67.3 223.0,67.3 226.8,67.3 230.7,67.3 234.5,67.3 238.3,67.3 242.1,67.3 246.0,67.3 249.8,67.3 253.6,67.3 257.4,67.3 261.2,67.3 265.1,67.3 268.9,67.3 272.7,67.3 276.5,67.3 280.4,67.3 284.2,67.3 288.0,67.3 291.8,67.3 295.6,67.3 299.5,67.3 303.3,67.3 307.1,67.3 310.9,67.3 314.8,67.3 318.6,67.3 322.4,67.3 326.2,67.3 330.0,67.3 333.9,67.3 337.7,67.3 341.5,67.3 345.3,67.3 349.2,67.3 353.0,67.3 356.8,67.3 360.6,67.3 364.4,67.3 368.3,67.3 372.1,67.3" fill="none" stroke="#43a047" stroke-width="1.5" stroke-linejoin="round"/>
      <polyline points="58.7,78.7 62.5,78.7 66.3,78.7 70.1,78.7 74.0,78.7 77.8,78.7 81.6,78.7 85.4,78.7 89.2,78.7 93.1,78.7 96.9,78.7 100.7,78.7 104.5,67.3 108.4,78.7 112.2,78.7 116.0,78.7 119.8,78.7 123.6,78.7 127.5,78.7 131.3,78.7 135.1,33.3 138.9,33.3 142.8,33.3 146.6,33.3 150.4,33.3 154.2,33.3 158.0,33.3 161.9,33.3 165.7,33.3 169.5,33.3 173.3,44.7 177.2,33.3" fill="none" stroke="#e53935" stroke-width="1.5" stroke-linejoin="round"/>
    </svg>