<svg xmlns="http://www.w3.org/2000/svg" width="380" height="110" viewBox="0 0 380 110">
      <rect width="380" height="110" fill="#fafafa" rx="4"/>
      <text x="190" y="13" text-anchor="middle" font-size="10" font-weight="bold" fill="#333">admin-dashboard-next</text>
      <line x1="30" y1="22" x2="30" y2="90" stroke="#e0e0e0" stroke-width="1"/>
      <line x1="30" y1="90" x2="374" y2="90" stroke="#e0e0e0" stroke-width="1"/>
      <line x1="30" y1="22" x2="374" y2="22" stroke="#f0f0f0" stroke-width="1"/>
      <text x="27" y="94" text-anchor="end" font-size="8" fill="#888">0</text><text x="27" y="26" text-anchor="end" font-size="8" fill="#888">5</text>
      <polygon points="31.9,35.6 35.7,35.6 39.6,35.6 43.4,35.6 47.2,35.6 51.0,35.6 54.8,35.6 58.7,35.6 62.5,35.6 66.3,35.6 70.1,35.6 74.0,35.6 77.8,35.6 81.6,35.6 85.4,35.6 89.2,35.6 93.1,35.6 96.9,35.6 100.7,35.6 104.5,35.6 108.4,35.6 112.2,35.6 116.0,35.6 119.8,35.6 123.6,35.6 127.5,35.6 131.3,35.6 135.1,35.6 138.9,35.6 142.8,35.6 146.6,35.6 150.4,35.6 154.2,35.6 158.0,35.6 161.9,35.6 165.7,35.6 169.5,35.6 173.3,35.6 177.2,35.6 181.0,35.6 184.8,35.6 188.6,35.6 192.4,35.6 196.3,35.6 200.1,35.6 203.9,35.6 207.7,35.6 211.6,35.6 215.4,35.6 219.2,35.6 223.0,35.6 226.8,35.6 230.7,35.6 234.5,35.6 238.3,35.6 242.1,35.6 246.0,35.6 249.8,35.6 253.6,35.6 257.4,35.6 261.2,35.6 265.1,35.6 268.9,35.6 272.7,35.6 276.5,49.2 280.4,49.2 284.2,49.2 288.0,49.2 291.8,49.2 295.6,49.2 299.5,49.2 303.3,49.2 307.1,49.2 310.9,49.2 314.8,49.2 318.6,49.2 322.4,62.8 326.2,49.2 330.0,49.2 333.9,49.2 337.7,49.2 341.5,49.2 345.3,49.2 349.2,49.2 353.0,90.0 356.8,90.0 360.6,90.0 364.4,90.0 368.3,90.0 372.1,90.0 372.1,90 31.9,90" fill="#43a047" opacity="0.15"/>
      <polyline points="31.9,35.6 35.7,35.6 39.6,35.6 43.4,35.6 47.2,35.6 51.0,35.6 54.8,35.6 58.7,35.6 62.5,35.6 66.3,35.6 70.1,35.6 74.0,35.6 77.8,35.6 81.6,35.6 85.4,35.6 89.2,35.6 93.1,35.6 96.9,35.6 100.7,35.6 104.5,35.6 108.4,35.6 112.2,35.6 116.0,35.6 119.8,35.6 123.6,35.6 127.5,35.6 131.3,35.6 135.1,35.6 138.9,35.6 142.8,35.6 146.6,35.6 150.4,35.6 154.2,35.6 158.0,35.6 161.9,35.6 165.7,35.6 169.5,35.6 173.3,35.6 177.2,35.6 181.0,35.6 184.8,35.6 188.6,35.6 192.4,35.6 196.3,35.6 200.1,35.6 203.9,35.6 207.7,35.6 211.6,35.6 215.4,35.6 219.2,35.6 223.0,35.6 226.8,35.6 230.7,35.6 234.5,35.6 238.3,35.6 242.1,35.6 246.0,35.6 249.8,35.6 253.6,35.6 257.4,35.6 261.2,35.6 265.1,35.6 268.9,35.6 272.7,35.6 276.5,49.2 280.4,49.2 284.2,49.2 288.0,49.2 291.8,49.2 295.6,49.2 299.5,49.2 303.3,49.2 307.1,49.2 310.9,49.2 314.8,49.2 318.6,49.2 322.4,62.8 326.2,49.2 330.0,49.2 333.9,49.2 337.7,49.2 341.5,49.2 345.3,49.2 349.2,49.2 353.0,90.0 356.8,90.0 360.6,90.0 364.4,90.0 368.3,90.0 372.1,90.0" fill="none" stroke="#43a047" stroke-width="1.5" stroke-linejoin="round"/>
      <polyline points="276.5,76.4 280.4,76.4 284.2,76.4 288.0,76.4 291.8,76.4 295.6,76.4 299.5,76.4 303.3,76.4 307.1,76.4 310.9,76.4 314.8,76.4 318.6,76.4 322.4,62.8 326.2,76.4 330.0,76.4 333.9,76.4 337.7,76.4 341.5,76.4 345.3,76.4 349.2,76.4 353.0,22.0 356.8,22.0 360.6,22.0 364.4,22.0 368.3,22.0 372.1,22.0" fill="none" stroke="#e53935" stroke-width="1.5" stroke-linejoin="round"/>
    </svg>