<svg xmlns="http://www.w3.org/2000/svg" width="770" height="200" viewBox="0 0 770 200">
      <rect width="770" height="200" fill="#fff" rx="6"/>
      
    <rect x="560" y="180" width="10" height="10" fill="#43a047" rx="2"/>
    <text x="574" y="189" font-size="10" fill="#666">Passed</text>
    <rect x="620" y="180" width="10" height="10" fill="#fdd835" rx="2"/>
    <text x="634" y="189" font-size="10" fill="#666">Warning</text>
    <rect x="700" y="180" width="10" height="10" fill="#e53935" rx="2"/>
    <text x="714" y="189" font-size="10" fill="#666">Failed</text>
  
      <text x="35" y="174" text-anchor="end" font-size="10" fill="#666">0</text><text x="35" y="94" text-anchor="end" font-size="10" fill="#666">8</text><text x="35" y="14" text-anchor="end" font-size="10" fill="#666">16</text>
      <line x1="40" y1="170" x2="770" y2="170" stroke="#ccc" stroke-width="1"/>
      <rect x="40" y="40" width="7" height="130" fill="#43a047" rx="1"/><rect x="48" y="40" width="7" height="130" fill="#43a047" rx="1"/><rect x="56" y="40" width="7" height="130" fill="#43a047" rx="1"/><rect x="64" y="40" width="7" height="130" fill="#43a047" rx="1"/><rect x="72" y="40" width="7" height="130" fill="#43a047" rx="1"/><rect x="80" y="40" width="7" height="130" fill="#43a047" rx="1"/><rect x="88" y="40" width="7" height="130" fill="#43a047" rx="1"/><rect x="96" y="40" width="7" height="130" fill="#43a047" rx="1"/><rect x="104" y="40" width="7" height="130" fill="#43a047" rx="1"/><rect x="112" y="40" width="7" height="130" fill="#43a047" rx="1"/><rect x="120" y="40" width="7" height="130" fill="#43a047" rx="1"/><rect x="128" y="40" width="7" height="130" fill="#43a047" rx="1"/><rect x="136" y="40" width="7" height="130" fill="#43a047" rx="1"/><rect x="144" y="40" width="7" height="130" fill="#43a047" rx="1"/><rect x="152" y="40" width="7" height="130" fill="#43a047" rx="1"/><rect x="160" y="40" width="7" height="130" fill="#43a047" rx="1"/><rect x="168" y="40" width="7" height="130" fill="#43a047" rx="1"/><rect x="176" y="40" width="7" height="130" fill="#43a047" rx="1"/><rect x="184" y="40" width="7" height="130" fill="#43a047" rx="1"/><rect x="192" y="40" width="7" height="130" fill="#43a047" rx="1"/><rect x="200" y="40" width="7" height="130" fill="#43a047" rx="1"/><rect x="208" y="40" width="7" height="130" fill="#43a047" rx="1"/><rect x="216" y="40" width="7" height="130" fill="#43a047" rx="1"/><rect x="224" y="40" width="7" height="130" fill="#43a047" rx="1"/><rect x="232" y="30" width="7" height="140" fill="#43a047" rx="1"/><rect x="240" y="30" width="7" height="140" fill="#43a047" rx="1"/><rect x="248" y="30" width="7" height="140" fill="#43a047" rx="1"/><rect x="256" y="30" width="7" height="140" fill="#43a047" rx="1"/><rect x="264" y="30" width="7" height="140" fill="#43a047" rx="1"/><rect x="272" y="30" width="7" height="140" fill="#43a047" rx="1"/><rect x="280" y="30" width="7" height="140" fill="#43a047" rx="1"/><rect x="288" y="30" width="7" height="140" fill="#43a047" rx="1"/><rect x="296" y="30" width="7" height="140" fill="#43a047" rx="1"/><rect x="304" y="30" width="7" height="140" fill="#43a047" rx="1"/><rect x="312" y="30" width="7" height="140" fill="#43a047" rx="1"/><rect x="320" y="30" width="7" height="140" fill="#43a047" rx="1"/><rect x="328" y="30" width="7" height="140" fill="#43a047" rx="1"/><rect x="336" y="30" width="7" height="140" fill="#43a047" rx="1"/><rect x="344" y="30" width="7" height="140" fill="#43a047" rx="1"/><rect x="352" y="30" width="7" height="140" fill="#43a047" rx="1"/><rect x="360" y="30" width="7" height="140" fill="#43a047" rx="1"/><rect x="368" y="30" width="7" height="140" fill="#43a047" rx="1"/><rect x="376" y="30" width="7" height="140" fill="#43a047" rx="1"/><rect x="384" y="30" width="7" height="140" fill="#43a047" rx="1"/><rect x="392" y="30" width="7" height="140" fill="#43a047" rx="1"/><rect x="400" y="30" width="7" height="140" fill="#43a047" rx="1"/><rect x="408" y="30" width="7" height="140" fill="#43a047" rx="1"/><rect x="416" y="30" width="7" height="140" fill="#43a047" rx="1"/><rect x="424" y="30" width="7" height="140" fill="#43a047" rx="1"/><rect x="432" y="30" width="7" height="140" fill="#43a047" rx="1"/><rect x="440" y="30" width="7" height="140" fill="#43a047" rx="1"/><rect x="448" y="30" width="7" height="140" fill="#43a047" rx="1"/><rect x="456" y="30" width="7" height="140" fill="#43a047" rx="1"/><rect x="464" y="30" width="7" height="140" fill="#43a047" rx="1"/><rect x="472" y="30" width="7" height="140" fill="#43a047" rx="1"/><rect x="480" y="30" width="7" height="140" fill="#43a047" rx="1"/><rect x="488" y="30" width="7" height="140" fill="#43a047" rx="1"/><rect x="496" y="30" width="7" height="140" fill="#43a047" rx="1"/><rect x="504" y="30" width="7" height="140" fill="#43a047" rx="1"/><rect x="512" y="30" width="7" height="140" fill="#43a047" rx="1"/><rect x="520" y="30" width="7" height="140" fill="#43a047" rx="1"/><rect x="528" y="30" width="7" height="140" fill="#43a047" rx="1"/><rect x="536" y="30" width="7" height="140" fill="#43a047" rx="1"/><rect x="544" y="30" width="7" height="140" fill="#43a047" rx="1"/><rect x="552" y="30" width="7" height="140" fill="#43a047" rx="1"/><rect x="560" y="30" width="7" height="140" fill="#43a047" rx="1"/><rect x="568" y="30" width="7" height="140" fill="#43a047" rx="1"/><rect x="576" y="30" width="7" height="140" fill="#43a047" rx="1"/><rect x="584" y="30" width="7" height="140" fill="#43a047" rx="1"/><rect x="592" y="20" width="7" height="150" fill="#43a047" rx="1"/><rect x="600" y="20" width="7" height="150" fill="#43a047" rx="1"/><rect x="608" y="20" width="7" height="150" fill="#43a047" rx="1"/><rect x="616" y="20" width="7" height="150" fill="#43a047" rx="1"/><rect x="624" y="20" width="7" height="150" fill="#43a047" rx="1"/><rect x="632" y="160" width="7" height="10" fill="#e53935" rx="1"/><rect x="632" y="70" width="7" height="90" fill="#43a047" rx="1"/><rect x="640" y="160" width="7" height="10" fill="#e53935" rx="1"/><rect x="640" y="70" width="7" height="90" fill="#43a047" rx="1"/><rect x="648" y="160" width="7" height="10" fill="#e53935" rx="1"/><rect x="648" y="70" width="7" height="90" fill="#43a047" rx="1"/><rect x="656" y="160" width="7" height="10" fill="#e53935" rx="1"/><rect x="656" y="20" width="7" height="140" fill="#43a047" rx="1"/><rect x="664" y="160" width="7" height="10" fill="#e53935" rx="1"/><rect x="664" y="10" width="7" height="150" fill="#43a047" rx="1"/><rect x="672" y="160" width="7" height="10" fill="#e53935" rx="1"/><rect x="672" y="10" width="7" height="150" fill="#43a047" rx="1"/><rect x="680" y="160" width="7" height="10" fill="#e53935" rx="1"/><rect x="680" y="10" width="7" height="150" fill="#43a047" rx="1"/><rect x="688" y="160" width="7" height="10" fill="#e53935" rx="1"/><rect x="688" y="70" width="7" height="90" fill="#43a047" rx="1"/><rect x="696" y="160" width="7" height="10" fill="#e53935" rx="1"/><rect x="696" y="10" width="7" height="150" fill="#43a047" rx="1"/><rect x="704" y="160" width="7" height="10" fill="#e53935" rx="1"/><rect x="704" y="10" width="7" height="150" fill="#43a047" rx="1"/><rect x="712" y="160" width="7" height="10" fill="#e53935" rx="1"/><rect x="712" y="10" width="7" height="150" fill="#43a047" rx="1"/><rect x="720" y="160" width="7" height="10" fill="#e53935" rx="1"/><rect x="720" y="10" width="7" height="150" fill="#43a047" rx="1"/><rect x="728" y="160" width="7" height="10" fill="#e53935" rx="1"/><rect x="728" y="10" width="7" height="150" fill="#43a047" rx="1"/><rect x="736" y="160" width="7" height="10" fill="#e53935" rx="1"/><rect x="736" y="10" width="7" height="150" fill="#43a047" rx="1"/><rect x="744" y="160" width="7" height="10" fill="#e53935" rx="1"/><rect x="744" y="10" width="7" height="150" fill="#43a047" rx="1"/><rect x="752" y="160" width="7" height="10" fill="#e53935" rx="1"/><rect x="752" y="10" width="7" height="150" fill="#43a047" rx="1"/>
    </svg>