<svg xmlns="http://www.w3.org/2000/svg" width="380" height="110" viewBox="0 0 380 110">
      <rect width="380" height="110" fill="#fafafa" rx="4"/>
      <text x="190" y="13" text-anchor="middle" font-size="10" font-weight="bold" fill="#333">portfolio</text>
      <line x1="30" y1="22" x2="30" y2="90" stroke="#e0e0e0" stroke-width="1"/>
      <line x1="30" y1="90" x2="374" y2="90" stroke="#e0e0e0" stroke-width="1"/>
      <line x1="30" y1="22" x2="374" y2="22" stroke="#f0f0f0" stroke-width="1"/>
      <text x="27" y="94" text-anchor="end" font-size="8" fill="#888">0</text><text x="27" y="26" text-anchor="end" font-size="8" fill="#888">22</text>
      <polygon points="31.9,22.0 35.7,25.1 39.6,22.0 43.4,22.0 47.2,22.0 51.0,22.0 54.8,25.1 58.7,22.0 62.5,22.0 66.3,22.0 70.1,22.0 74.0,22.0 77.8,22.0 81.6,22.0 85.4,22.0 89.2,22.0 93.1,25.1 96.9,25.1 100.7,25.1 104.5,22.0 108.4,25.1 112.2,25.1 116.0,25.1 119.8,25.1 123.6,25.1 127.5,25.1 131.3,25.1 135.1,25.1 138.9,25.1 142.8,25.1 146.6,25.1 150.4,25.1 154.2,22.0 158.0,22.0 161.9,22.0 165.7,22.0 169.5,22.0 173.3,22.0 177.2,22.0 181.0,28.2 184.8,31.3 188.6,28.2 192.4,31.3 196.3,28.2 200.1,31.3 203.9,28.2 207.7,28.2 211.6,28.2 215.4,28.2 219.2,28.2 223.0,31.3 226.8,31.3 230.7,28.2 234.5,28.2 238.3,28.2 242.1,28.2 246.0,28.2 249.8,28.2 253.6,22.0 257.4,22.0 261.2,22.0 265.1,22.0 268.9,22.0 272.7,22.0 276.5,22.0 280.4,22.0 284.2,22.0 288.0,22.0 291.8,22.0 295.6,22.0 299.5,22.0 303.3,22.0 307.1,22.0 310.9,22.0 314.8,22.0 318.6,22.0 322.4,22.0 326.2,22.0 330.0,22.0 333.9,22.0 337.7,22.0 341.5,22.0 345.3,22.0 349.2,22.0 353.0,22.0 356.8,22.0 360.6,22.0 364.4,22.0 368.3,22.0 372.1,22.0 372.1,90 31.9,90" fill="#43a047" opacity="0.15"/>
      <polyline points="31.9,22.0 35.7,25.1 39.6,22.0 43.4,22.0 47.2,22.0 51.0,22.0 54.8,25.1 58.7,22.0 62.5,22.0 66.3,22.0 70.1,22.0 74.0,22.0 77.8,22.0 81.6,22.0 85.4,22.0 89.2,22.0 93.1,25.1 96.9,25.1 100.7,25.1 104.5,22.0 108.4,25.1 112.2,25.1 116.0,25.1 119.8,25.1 123.6,25.1 127.5,25.1 131.3,25.1 135.1,25.1 138.9,25.1 142.8,25.1 146.6,25.1 150.4,25.1 154.2,22.0 158.0,22.0 161.9,22.0 165.7,22.0 169.5,22.0 173.3,22.0 177.2,22.0 181.0,28.2 184.8,31.3 188.6,28.2 192.4,31.3 196.3,28.2 200.1,31.3 203.9,28.2 207.7,28.2 211.6,28.2 215.4,28.2 219.2,28.2 223.0,31.3 226.8,31.3 230.7,28.2 234.5,28.2 238.3,28.2 242.1,28.2 246.0,28.2 249.8,28.2 253.6,22.0 257.4,22.0 261.2,22.0 265.1,22.0 268.9,22.0 272.7,22.0 276.5,22.0 280.4,22.0 284.2,22.0 288.0,22.0 291.8,22.0 295.6,22.0 299.5,22.0 303.3,22.0 307.1,22.0 310.9,22.0 314.8,22.0 318.6,22.0 322.4,22.0 326.2,22.0 330.0,22.0 333.9,22.0 337.7,22.0 341.5,22.0 345.3,22.0 349.2,22.0 353.0,22.0 356.8,22.0 360.6,22.0 364.4,22.0 368.3,22.0 372.1,22.0" fill="none" stroke="#43a047" stroke-width="1.5" stroke-linejoin="round"/>
      <polyline points="35.7,86.9 54.8,86.9 93.1,86.9 96.9,86.9 100.7,86.9 108.4,86.9 112.2,86.9 116.0,86.9 119.8,86.9 123.6,86.9 127.5,86.9 131.3,86.9 135.1,86.9 138.9,86.9 142.8,86.9 146.6,86.9 150.4,86.9 181.0,83.8 184.8,80.7 188.6,83.8 192.4,80.7 196.3,83.8 200.1,80.7 203.9,83.8 207.7,83.8 211.6,83.8 215.4,83.8 219.2,83.8 223.0,80.7 226.8,80.7 230.7,83.8 234.5,83.8 238.3,83.8 242.1,83.8 246.0,83.8 249.8,83.8" fill="none" stroke="#e53935" stroke-width="1.5" stroke-linejoin="round"/>
    </svg>