<svg xmlns="http://www.w3.org/2000/svg" width="380" height="110" viewBox="0 0 380 110">
      <rect width="380" height="110" fill="#fafafa" rx="4"/>
      <text x="190" y="13" text-anchor="middle" font-size="10" font-weight="bold" fill="#333">movies-search</text>
      <line x1="30" y1="22" x2="30" y2="90" stroke="#e0e0e0" stroke-width="1"/>
      <line x1="30" y1="90" x2="374" y2="90" stroke="#e0e0e0" stroke-width="1"/>
      <line x1="30" y1="22" x2="374" y2="22" stroke="#f0f0f0" stroke-width="1"/>
      <text x="27" y="94" text-anchor="end" font-size="8" fill="#888">0</text><text x="27" y="26" text-anchor="end" font-size="8" fill="#888">3</text>
      <polygon points="31.9,44.7 35.7,44.7 39.6,44.7 43.4,44.7 47.2,44.7 51.0,44.7 54.8,44.7 58.7,44.7 62.5,44.7 66.3,44.7 70.1,44.7 74.0,44.7 77.8,44.7 81.6,44.7 85.4,44.7 89.2,44.7 93.1,44.7 96.9,44.7 100.7,44.7 104.5,44.7 108.4,44.7 112.2,44.7 116.0,44.7 119.8,44.7 123.6,44.7 127.5,44.7 131.3,44.7 135.1,44.7 138.9,44.7 142.8,44.7 146.6,44.7 150.4,44.7 154.2,44.7 158.0,44.7 161.9,44.7 165.7,44.7 169.5,44.7 173.3,44.7 177.2,44.7 181.0,44.7 184.8,44.7 188.6,44.7 192.4,44.7 196.3,44.7 200.1,44.7 203.9,44.7 207.7,44.7 211.6,44.7 215.4,44.7 219.2,44.7 223.0,44.7 226.8,44.7 230.7,44.7 234.5,44.7 238.3,44.7 242.1,44.7 246.0,44.7 249.8,44.7 253.6,44.7 257.4,44.7 261.2,44.7 265.1,44.7 268.9,44.7 272.7,44.7 276.5,44.7 280.4,44.7 284.2,44.7 288.0,44.7 291.8,44.7 295.6,44.7 299.5,44.7 303.3,90.0 307.1,22.0 310.9,22.0 314.8,22.0 318.6,22.0 322.4,22.0 326.2,22.0 330.0,22.0 333.9,22.0 337.7,22.0 341.5,22.0 345.3,22.0 349.2,22.0 353.0,22.0 356.8,22.0 360.6,22.0 364.4,22.0 368.3,22.0 372.1,22.0 372.1,90 31.9,90" fill="#43a047" opacity="0.15"/>
      <polyline points="31.9,44.7 35.7,44.7 39.6,44.7 43.4,44.7 47.2,44.7 51.0,44.7 54.8,44.7 58.7,44.7 62.5,44.7 66.3,44.7 70.1,44.7 74.0,44.7 77.8,44.7 81.6,44.7 85.4,44.7 89.2,44.7 93.1,44.7 96.9,44.7 100.7,44.7 104.5,44.7 108.4,44.7 112.2,44.7 116.0,44.7 119.8,44.7 123.6,44.7 127.5,44.7 131.3,44.7 135.1,44.7 138.9,44.7 142.8,44.7 146.6,44.7 150.4,44.7 154.2,44.7 158.0,44.7 161.9,44.7 165.7,44.7 169.5,44.7 173.3,44.7 177.2,44.7 181.0,44.7 184.8,44.7 188.6,44.7 192.4,44.7 196.3,44.7 200.1,44.7 203.9,44.7 207.7,44.7 211.6,44.7 215.4,44.7 219.2,44.7 223.0,44.7 226.8,44.7 230.7,44.7 234.5,44.7 238.3,44.7 242.1,44.7 246.0,44.7 249.8,44.7 253.6,44.7 257.4,44.7 261.2,44.7 265.1,44.7 268.9,44.7 272.7,44.7 276.5,44.7 280.4,44.7 284.2,44.7 288.0,44.7 291.8,44.7 295.6,44.7 299.5,44.7 303.3,90.0 307.1,22.0 310.9,22.0 314.8,22.0 318.6,22.0 322.4,22.0 326.2,22.0 330.0,22.0 333.9,22.0 337.7,22.0 341.5,22.0 345.3,22.0 349.2,22.0 353.0,22.0 356.8,22.0 360.6,22.0 364.4,22.0 368.3,22.0 372.1,22.0" fill="none" stroke="#43a047" stroke-width="1.5" stroke-linejoin="round"/>
      <circle cx="303.3" cy="44.7" r="2" fill="#e53935"/>
    </svg>