<svg xmlns="http://www.w3.org/2000/svg" width="770" height="200" viewBox="0 0 770 200">
      <rect width="770" height="200" fill="#fff" rx="6"/>
      
    <rect x="40" y="2" width="10" height="10" fill="#43a047" rx="2"/>
    <text x="54" y="11" font-size="10" fill="#666">Passed</text>
    <rect x="100" y="2" width="10" height="10" fill="#fdd835" rx="2"/>
    <text x="114" y="11" font-size="10" fill="#666">Warning</text>
    <rect x="180" y="2" width="10" height="10" fill="#e53935" rx="2"/>
    <text x="194" y="11" font-size="10" fill="#666">Failed</text>
  
      <text x="35" y="174" text-anchor="end" font-size="10" fill="#666">0</text><text x="35" y="94" text-anchor="end" font-size="10" fill="#666">7</text><text x="35" y="14" text-anchor="end" font-size="10" fill="#666">14</text>
      <line x1="40" y1="170" x2="770" y2="170" stroke="#ccc" stroke-width="1"/>
      <rect x="40" y="21.428571428571416" width="7" height="148.57142857142858" fill="#43a047" rx="1"/><rect x="48" y="21.428571428571416" width="7" height="148.57142857142858" fill="#43a047" rx="1"/><rect x="56" y="21.428571428571416" width="7" height="148.57142857142858" fill="#43a047" rx="1"/><rect x="64" y="21.428571428571416" width="7" height="148.57142857142858" fill="#43a047" rx="1"/><rect x="72" y="21.428571428571416" width="7" height="148.57142857142858" fill="#43a047" rx="1"/><rect x="80" y="21.428571428571416" width="7" height="148.57142857142858" fill="#43a047" rx="1"/><rect x="88" y="21.428571428571416" width="7" height="148.57142857142858" fill="#43a047" rx="1"/><rect x="96" y="21.428571428571416" width="7" height="148.57142857142858" fill="#43a047" rx="1"/><rect x="104" y="21.428571428571416" width="7" height="148.57142857142858" fill="#43a047" rx="1"/><rect x="112" y="21.428571428571416" width="7" height="148.57142857142858" fill="#43a047" rx="1"/><rect x="120" y="21.428571428571416" width="7" height="148.57142857142858" fill="#43a047" rx="1"/><rect x="128" y="21.428571428571416" width="7" height="148.57142857142858" fill="#43a047" rx="1"/><rect x="136" y="21.428571428571416" width="7" height="148.57142857142858" fill="#43a047" rx="1"/><rect x="144" y="21.428571428571416" width="7" height="148.57142857142858" fill="#43a047" rx="1"/><rect x="152" y="21.428571428571416" width="7" height="148.57142857142858" fill="#43a047" rx="1"/><rect x="160" y="21.428571428571416" width="7" height="148.57142857142858" fill="#43a047" rx="1"/><rect x="168" y="21.428571428571416" width="7" height="148.57142857142858" fill="#43a047" rx="1"/><rect x="176" y="21.428571428571416" width="7" height="148.57142857142858" fill="#43a047" rx="1"/><rect x="184" y="21.428571428571416" width="7" height="148.57142857142858" fill="#43a047" rx="1"/><rect x="192" y="21.428571428571416" width="7" height="148.57142857142858" fill="#43a047" rx="1"/><rect x="200" y="21.428571428571416" width="7" height="148.57142857142858" fill="#43a047" rx="1"/><rect x="208" y="21.428571428571416" width="7" height="148.57142857142858" fill="#43a047" rx="1"/><rect x="216" y="21.428571428571416" width="7" height="148.57142857142858" fill="#43a047" rx="1"/><rect x="224" y="21.428571428571416" width="7" height="148.57142857142858" fill="#43a047" rx="1"/><rect x="232" y="21.428571428571416" width="7" height="148.57142857142858" fill="#43a047" rx="1"/><rect x="240" y="21.428571428571416" width="7" height="148.57142857142858" fill="#43a047" rx="1"/><rect x="248" y="21.428571428571416" width="7" height="148.57142857142858" fill="#43a047" rx="1"/><rect x="256" y="21.428571428571416" width="7" height="148.57142857142858" fill="#43a047" rx="1"/><rect x="264" y="21.428571428571416" width="7" height="148.57142857142858" fill="#43a047" rx="1"/><rect x="272" y="21.428571428571416" width="7" height="148.57142857142858" fill="#43a047" rx="1"/><rect x="280" y="21.428571428571416" width="7" height="148.57142857142858" fill="#43a047" rx="1"/><rect x="288" y="21.428571428571416" width="7" height="148.57142857142858" fill="#43a047" rx="1"/><rect x="296" y="21.428571428571416" width="7" height="148.57142857142858" fill="#43a047" rx="1"/><rect x="304" y="21.428571428571416" width="7" height="148.57142857142858" fill="#43a047" rx="1"/><rect x="312" y="21.428571428571416" width="7" height="148.57142857142858" fill="#43a047" rx="1"/><rect x="320" y="21.428571428571416" width="7" height="148.57142857142858" fill="#43a047" rx="1"/><rect x="328" y="21.428571428571416" width="7" height="148.57142857142858" fill="#43a047" rx="1"/><rect x="336" y="21.428571428571416" width="7" height="148.57142857142858" fill="#43a047" rx="1"/><rect x="344" y="21.428571428571416" width="7" height="148.57142857142858" fill="#43a047" rx="1"/><rect x="352" y="21.428571428571416" width="7" height="148.57142857142858" fill="#43a047" rx="1"/><rect x="360" y="21.428571428571416" width="7" height="148.57142857142858" fill="#43a047" rx="1"/><rect x="368" y="21.428571428571416" width="7" height="148.57142857142858" fill="#43a047" rx="1"/><rect x="376" y="21.428571428571416" width="7" height="148.57142857142858" fill="#43a047" rx="1"/><rect x="384" y="21.428571428571416" width="7" height="148.57142857142858" fill="#43a047" rx="1"/><rect x="392" y="21.428571428571416" width="7" height="148.57142857142858" fill="#43a047" rx="1"/><rect x="400" y="21.428571428571416" width="7" height="148.57142857142858" fill="#43a047" rx="1"/><rect x="408" y="21.428571428571416" width="7" height="148.57142857142858" fill="#43a047" rx="1"/><rect x="416" y="21.428571428571416" width="7" height="148.57142857142858" fill="#43a047" rx="1"/><rect x="424" y="21.428571428571416" width="7" height="148.57142857142858" fill="#43a047" rx="1"/><rect x="432" y="21.428571428571416" width="7" height="148.57142857142858" fill="#43a047" rx="1"/><rect x="440" y="21.428571428571416" width="7" height="148.57142857142858" fill="#43a047" rx="1"/><rect x="448" y="21.428571428571416" width="7" height="148.57142857142858" fill="#43a047" rx="1"/><rect x="456" y="21.428571428571416" width="7" height="148.57142857142858" fill="#43a047" rx="1"/><rect x="464" y="21.428571428571416" width="7" height="148.57142857142858" fill="#43a047" rx="1"/><rect x="472" y="21.428571428571416" width="7" height="148.57142857142858" fill="#43a047" rx="1"/><rect x="480" y="21.428571428571416" width="7" height="148.57142857142858" fill="#43a047" rx="1"/><rect x="488" y="21.428571428571416" width="7" height="148.57142857142858" fill="#43a047" rx="1"/><rect x="496" y="21.428571428571416" width="7" height="148.57142857142858" fill="#43a047" rx="1"/><rect x="504" y="21.428571428571416" width="7" height="148.57142857142858" fill="#43a047" rx="1"/><rect x="512" y="21.428571428571416" width="7" height="148.57142857142858" fill="#43a047" rx="1"/><rect x="520" y="21.428571428571416" width="7" height="148.57142857142858" fill="#43a047" rx="1"/><rect x="528" y="21.428571428571416" width="7" height="148.57142857142858" fill="#43a047" rx="1"/><rect x="536" y="21.428571428571416" width="7" height="148.57142857142858" fill="#43a047" rx="1"/><rect x="544" y="21.428571428571416" width="7" height="148.57142857142858" fill="#43a047" rx="1"/><rect x="552" y="21.428571428571416" width="7" height="148.57142857142858" fill="#43a047" rx="1"/><rect x="560" y="21.428571428571416" width="7" height="148.57142857142858" fill="#43a047" rx="1"/><rect x="568" y="21.428571428571416" width="7" height="148.57142857142858" fill="#43a047" rx="1"/><rect x="576" y="21.428571428571416" width="7" height="148.57142857142858" fill="#43a047" rx="1"/><rect x="584" y="21.428571428571416" width="7" height="148.57142857142858" fill="#43a047" rx="1"/><rect x="592" y="21.428571428571416" width="7" height="148.57142857142858" fill="#43a047" rx="1"/><rect x="600" y="21.428571428571416" width="7" height="148.57142857142858" fill="#43a047" rx="1"/><rect x="608" y="21.428571428571416" width="7" height="148.57142857142858" fill="#43a047" rx="1"/><rect x="616" y="21.428571428571416" width="7" height="148.57142857142858" fill="#43a047" rx="1"/><rect x="624" y="21.428571428571416" width="7" height="148.57142857142858" fill="#43a047" rx="1"/><rect x="632" y="21.428571428571416" width="7" height="148.57142857142858" fill="#43a047" rx="1"/><rect x="640" y="21.428571428571416" width="7" height="148.57142857142858" fill="#43a047" rx="1"/><rect x="648" y="21.428571428571416" width="7" height="148.57142857142858" fill="#43a047" rx="1"/><rect x="656" y="21.428571428571416" width="7" height="148.57142857142858" fill="#43a047" rx="1"/><rect x="664" y="21.428571428571416" width="7" height="148.57142857142858" fill="#43a047" rx="1"/><rect x="672" y="21.428571428571416" width="7" height="148.57142857142858" fill="#43a047" rx="1"/><rect x="680" y="21.428571428571416" width="7" height="148.57142857142858" fill="#43a047" rx="1"/><rect x="688" y="21.428571428571416" width="7" height="148.57142857142858" fill="#43a047" rx="1"/><rect x="696" y="21.428571428571416" width="7" height="148.57142857142858" fill="#43a047" rx="1"/><rect x="704" y="21.428571428571416" width="7" height="148.57142857142858" fill="#43a047" rx="1"/><rect x="712" y="10" width="7" height="160" fill="#43a047" rx="1"/><rect x="720" y="10" width="7" height="160" fill="#43a047" rx="1"/><rect x="728" y="10" width="7" height="160" fill="#43a047" rx="1"/><rect x="736" y="10" width="7" height="160" fill="#43a047" rx="1"/><rect x="744" y="10" width="7" height="160" fill="#43a047" rx="1"/><rect x="752" y="10" width="7" height="160" fill="#43a047" rx="1"/>
    </svg>