<svg xmlns="http://www.w3.org/2000/svg" width="380" height="110" viewBox="0 0 380 110">
      <rect width="380" height="110" fill="#fafafa" rx="4"/>
      <text x="190" y="13" text-anchor="middle" font-size="10" font-weight="bold" fill="#333">portfolio</text>
      <line x1="30" y1="22" x2="30" y2="90" stroke="#e0e0e0" stroke-width="1"/>
      <line x1="30" y1="90" x2="374" y2="90" stroke="#e0e0e0" stroke-width="1"/>
      <line x1="30" y1="22" x2="374" y2="22" stroke="#f0f0f0" stroke-width="1"/>
      <text x="27" y="94" text-anchor="end" font-size="8" fill="#888">0</text><text x="27" y="26" text-anchor="end" font-size="8" fill="#888">11</text>
      <polygon points="31.9,22.0 35.7,22.0 39.6,22.0 43.4,22.0 47.2,22.0 51.0,22.0 54.8,22.0 58.7,22.0 62.5,22.0 66.3,22.0 70.1,22.0 74.0,22.0 77.8,22.0 81.6,22.0 85.4,22.0 89.2,22.0 93.1,22.0 96.9,22.0 100.7,22.0 104.5,22.0 108.4,22.0 112.2,22.0 116.0,22.0 119.8,22.0 123.6,22.0 127.5,22.0 131.3,22.0 135.1,22.0 138.9,22.0 142.8,22.0 146.6,22.0 150.4,22.0 154.2,22.0 158.0,22.0 161.9,22.0 165.7,22.0 169.5,22.0 173.3,22.0 177.2,22.0 181.0,22.0 184.8,22.0 188.6,22.0 192.4,22.0 196.3,22.0 200.1,22.0 203.9,22.0 207.7,22.0 211.6,22.0 215.4,22.0 219.2,22.0 223.0,22.0 226.8,28.2 230.7,28.2 234.5,28.2 238.3,28.2 242.1,28.2 246.0,28.2 249.8,28.2 253.6,28.2 257.4,28.2 261.2,28.2 265.1,28.2 268.9,28.2 272.7,28.2 276.5,28.2 280.4,28.2 284.2,28.2 288.0,28.2 291.8,28.2 295.6,28.2 299.5,28.2 303.3,28.2 307.1,28.2 310.9,28.2 314.8,28.2 318.6,28.2 322.4,28.2 326.2,28.2 330.0,28.2 333.9,28.2 337.7,28.2 341.5,28.2 345.3,28.2 349.2,28.2 353.0,28.2 356.8,28.2 360.6,28.2 364.4,28.2 368.3,28.2 372.1,28.2 372.1,90 31.9,90" fill="#43a047" opacity="0.15"/>
      <polyline points="31.9,22.0 35.7,22.0 39.6,22.0 43.4,22.0 47.2,22.0 51.0,22.0 54.8,22.0 58.7,22.0 62.5,22.0 66.3,22.0 70.1,22.0 74.0,22.0 77.8,22.0 81.6,22.0 85.4,22.0 89.2,22.0 93.1,22.0 96.9,22.0 100.7,22.0 104.5,22.0 108.4,22.0 112.2,22.0 116.0,22.0 119.8,22.0 123.6,22.0 127.5,22.0 131.3,22.0 135.1,22.0 138.9,22.0 142.8,22.0 146.6,22.0 150.4,22.0 154.2,22.0 158.0,22.0 161.9,22.0 165.7,22.0 169.5,22.0 173.3,22.0 177.2,22.0 181.0,22.0 184.8,22.0 188.6,22.0 192.4,22.0 196.3,22.0 200.1,22.0 203.9,22.0 207.7,22.0 211.6,22.0 215.4,22.0 219.2,22.0 223.0,22.0 226.8,28.2 230.7,28.2 234.5,28.2 238.3,28.2 242.1,28.2 246.0,28.2 249.8,28.2 253.6,28.2 257.4,28.2 261.2,28.2 265.1,28.2 268.9,28.2 272.7,28.2 276.5,28.2 280.4,28.2 284.2,28.2 288.0,28.2 291.8,28.2 295.6,28.2 299.5,28.2 303.3,28.2 307.1,28.2 310.9,28.2 314.8,28.2 318.6,28.2 322.4,28.2 326.2,28.2 330.0,28.2 333.9,28.2 337.7,28.2 341.5,28.2 345.3,28.2 349.2,28.2 353.0,28.2 356.8,28.2 360.6,28.2 364.4,28.2 368.3,28.2 372.1,28.2" fill="none" stroke="#43a047" stroke-width="1.5" stroke-linejoin="round"/>
      <polyline points="226.8,83.8 230.7,83.8 234.5,83.8 238.3,83.8 242.1,83.8 246.0,83.8 249.8,83.8 253.6,83.8 257.4,83.8 261.2,83.8 265.1,83.8 268.9,83.8 272.7,83.8 276.5,83.8 280.4,83.8 284.2,83.8 288.0,83.8 291.8,83.8 295.6,83.8 299.5,83.8 303.3,83.8 307.1,83.8 310.9,83.8 314.8,83.8 318.6,83.8 322.4,83.8 326.2,83.8 330.0,83.8 333.9,83.8 337.7,83.8 341.5,83.8 345.3,83.8 349.2,83.8 353.0,83.8 356.8,83.8 360.6,83.8 364.4,83.8 368.3,83.8 372.1,83.8" fill="none" stroke="#e53935" stroke-width="1.5" stroke-linejoin="round"/>
    </svg>