<svg xmlns="http://www.w3.org/2000/svg" width="380" height="110" viewBox="0 0 380 110">
      <rect width="380" height="110" fill="#fafafa" rx="4"/>
      <text x="190" y="13" text-anchor="middle" font-size="10" font-weight="bold" fill="#333">leetcode-ui</text>
      <line x1="30" y1="22" x2="30" y2="90" stroke="#e0e0e0" stroke-width="1"/>
      <line x1="30" y1="90" x2="374" y2="90" stroke="#e0e0e0" stroke-width="1"/>
      <line x1="30" y1="22" x2="374" y2="22" stroke="#f0f0f0" stroke-width="1"/>
      <text x="27" y="94" text-anchor="end" font-size="8" fill="#888">0</text><text x="27" y="26" text-anchor="end" font-size="8" fill="#888">19</text>
      <polygon points="31.9,43.5 35.7,43.5 39.6,43.5 43.4,43.5 47.2,43.5 51.0,43.5 54.8,43.5 58.7,43.5 62.5,43.5 66.3,43.5 70.1,43.5 74.0,43.5 77.8,43.5 81.6,43.5 85.4,43.5 89.2,43.5 93.1,43.5 96.9,43.5 100.7,43.5 104.5,43.5 108.4,43.5 112.2,43.5 116.0,43.5 119.8,43.5 123.6,43.5 127.5,43.5 131.3,43.5 135.1,43.5 138.9,43.5 142.8,43.5 146.6,43.5 150.4,43.5 154.2,43.5 158.0,43.5 161.9,43.5 165.7,43.5 169.5,43.5 173.3,43.5 177.2,90.0 181.0,22.0 184.8,22.0 188.6,22.0 192.4,22.0 196.3,22.0 200.1,22.0 203.9,22.0 207.7,22.0 211.6,22.0 215.4,22.0 219.2,22.0 223.0,22.0 226.8,22.0 230.7,22.0 234.5,22.0 238.3,22.0 242.1,22.0 246.0,22.0 249.8,22.0 253.6,22.0 257.4,22.0 261.2,22.0 265.1,22.0 268.9,22.0 272.7,22.0 276.5,22.0 280.4,22.0 284.2,22.0 288.0,22.0 291.8,22.0 295.6,22.0 299.5,22.0 303.3,22.0 307.1,22.0 310.9,22.0 314.8,22.0 318.6,22.0 322.4,22.0 326.2,22.0 330.0,22.0 333.9,22.0 337.7,22.0 341.5,22.0 345.3,22.0 349.2,22.0 353.0,22.0 356.8,22.0 360.6,22.0 364.4,22.0 368.3,22.0 372.1,22.0 372.1,90 31.9,90" fill="#43a047" opacity="0.15"/>
      <polyline points="31.9,43.5 35.7,43.5 39.6,43.5 43.4,43.5 47.2,43.5 51.0,43.5 54.8,43.5 58.7,43.5 62.5,43.5 66.3,43.5 70.1,43.5 74.0,43.5 77.8,43.5 81.6,43.5 85.4,43.5 89.2,43.5 93.1,43.5 96.9,43.5 100.7,43.5 104.5,43.5 108.4,43.5 112.2,43.5 116.0,43.5 119.8,43.5 123.6,43.5 127.5,43.5 131.3,43.5 135.1,43.5 138.9,43.5 142.8,43.5 146.6,43.5 150.4,43.5 154.2,43.5 158.0,43.5 161.9,43.5 165.7,43.5 169.5,43.5 173.3,43.5 177.2,90.0 181.0,22.0 184.8,22.0 188.6,22.0 192.4,22.0 196.3,22.0 200.1,22.0 203.9,22.0 207.7,22.0 211.6,22.0 215.4,22.0 219.2,22.0 223.0,22.0 226.8,22.0 230.7,22.0 234.5,22.0 238.3,22.0 242.1,22.0 246.0,22.0 249.8,22.0 253.6,22.0 257.4,22.0 261.2,22.0 265.1,22.0 268.9,22.0 272.7,22.0 276.5,22.0 280.4,22.0 284.2,22.0 288.0,22.0 291.8,22.0 295.6,22.0 299.5,22.0 303.3,22.0 307.1,22.0 310.9,22.0 314.8,22.0 318.6,22.0 322.4,22.0 326.2,22.0 330.0,22.0 333.9,22.0 337.7,22.0 341.5,22.0 345.3,22.0 349.2,22.0 353.0,22.0 356.8,22.0 360.6,22.0 364.4,22.0 368.3,22.0 372.1,22.0" fill="none" stroke="#43a047" stroke-width="1.5" stroke-linejoin="round"/>
      <polyline points="31.9,82.8 35.7,82.8 39.6,82.8 43.4,82.8 47.2,82.8 51.0,82.8 54.8,82.8 58.7,82.8 62.5,82.8 66.3,82.8 70.1,82.8 74.0,82.8 77.8,82.8 81.6,82.8 85.4,82.8 89.2,82.8 93.1,82.8 96.9,82.8 100.7,82.8 104.5,82.8 108.4,82.8 112.2,82.8 116.0,82.8 119.8,82.8 123.6,82.8 127.5,82.8 131.3,82.8 135.1,82.8 138.9,82.8 142.8,82.8 146.6,82.8 150.4,82.8 154.2,82.8 158.0,82.8 161.9,82.8 165.7,82.8 169.5,82.8 173.3,82.8 177.2,36.3" fill="none" stroke="#e53935" stroke-width="1.5" stroke-linejoin="round"/>
    </svg>