<svg xmlns="http://www.w3.org/2000/svg" width="770" height="378" viewBox="0 0 770 378">
      <rect width="770" height="378" fill="#fff" rx="6"/>
      <line x1="40" y1="190" x2="760" y2="190" stroke="#eee" stroke-width="1"/><text x="35" y="194" text-anchor="end" font-size="10" fill="#666">0%</text><line x1="40" y1="105" x2="760" y2="105" stroke="#eee" stroke-width="1"/><text x="35" y="109" text-anchor="end" font-size="10" fill="#666">50%</text><line x1="40" y1="20" x2="760" y2="20" stroke="#eee" stroke-width="1"/><text x="35" y="24" text-anchor="end" font-size="10" fill="#666">100%</text>
      <line x1="40" y1="20" x2="40" y2="190" stroke="#ccc" stroke-width="1"/>
      <line x1="40" y1="190" x2="760" y2="190" stroke="#ccc" stroke-width="1"/>
      <polyline points="44.0,20.0 52.0,20.0 60.0,20.0 68.0,20.0 76.0,20.0 84.0,20.0 92.0,20.0 100.0,20.0 108.0,20.0 116.0,20.0 124.0,20.0 132.0,20.0 140.0,20.0 148.0,20.0 156.0,20.0 164.0,20.0 172.0,20.0 180.0,20.0 188.0,20.0 196.0,20.0 204.0,20.0 212.0,20.0 220.0,20.0 228.0,20.0 236.0,20.0 244.0,20.0 252.0,20.0 260.0,20.0 268.0,20.0 276.0,20.0 284.0,20.0 292.0,20.0 300.0,20.0 308.0,20.0 316.0,20.0 324.0,20.0 332.0,20.0 340.0,20.0 348.0,20.0 356.0,20.0 364.0,20.0 372.0,20.0 380.0,20.0 388.0,20.0 396.0,20.0 404.0,20.0 412.0,20.0 420.0,20.0 428.0,20.0 436.0,20.0 444.0,20.0 452.0,20.0 460.0,20.0 468.0,20.0 476.0,20.0 484.0,20.0 492.0,20.0 500.0,20.0 508.0,20.0 516.0,20.0 524.0,20.0 532.0,20.0 540.0,20.0 548.0,20.0 556.0,20.0 564.0,20.0 572.0,20.0 580.0,20.0 588.0,20.0 596.0,20.0 604.0,20.0 612.0,20.0 620.0,20.0 628.0,20.0 636.0,20.0 644.0,20.0 652.0,20.0 660.0,20.0 668.0,20.0 676.0,20.0 684.0,20.0 692.0,20.0 700.0,20.0 708.0,20.0 716.0,20.0 724.0,20.0 732.0,20.0 740.0,20.0 748.0,20.0" fill="none" stroke="#1976D2" stroke-width="1.5" stroke-linejoin="round" opacity="0.85"/><polyline points="44.0,20.0 52.0,20.0 60.0,20.0 68.0,20.0 76.0,20.0 84.0,20.0 92.0,20.0 100.0,20.0 108.0,20.0 116.0,20.0 124.0,20.0 132.0,20.0 140.0,20.0 148.0,20.0 156.0,20.0 164.0,20.0 172.0,20.0 180.0,20.0 188.0,20.0 196.0,20.0 204.0,20.0 212.0,20.0 220.0,20.0 228.0,20.0 236.0,20.0 244.0,20.0 252.0,20.0 260.0,20.0 268.0,20.0 276.0,20.0 284.0,20.0 292.0,20.0 300.0,20.0 308.0,20.0 316.0,20.0 324.0,20.0 332.0,20.0 340.0,20.0 348.0,20.0 356.0,20.0 364.0,20.0 372.0,20.0 380.0,20.0 388.0,20.0 396.0,20.0 404.0,20.0 412.0,20.0 420.0,20.0 428.0,20.0 436.0,20.0 444.0,20.0 452.0,20.0 460.0,20.0 468.0,20.0 476.0,20.0 484.0,20.0 492.0,20.0 500.0,20.0 508.0,20.0 516.0,20.0 524.0,20.0 532.0,20.0 540.0,20.0 548.0,20.0 556.0,20.0 564.0,20.0 572.0,20.0 580.0,20.0 588.0,20.0 596.0,20.0 604.0,20.0 612.0,20.0 620.0,20.0 628.0,20.0 636.0,20.0 644.0,20.0 652.0,20.0 660.0,20.0 668.0,20.0 676.0,20.0 684.0,20.0 692.0,20.0 700.0,20.0 708.0,20.0 716.0,20.0 724.0,20.0 732.0,20.0 740.0,20.0 748.0,20.0" fill="none" stroke="#388E3C" stroke-width="1.5" stroke-linejoin="round" opacity="0.85"/><polyline points="44.0,20.0 52.0,20.0 60.0,20.0 68.0,20.0 76.0,20.0 84.0,20.0 92.0,20.0 100.0,20.0 108.0,20.0 116.0,20.0 124.0,20.0 132.0,20.0 140.0,20.0 148.0,20.0 156.0,20.0 164.0,20.0 172.0,20.0 180.0,20.0 188.0,20.0 196.0,20.0 204.0,20.0 212.0,20.0 220.0,20.0 228.0,20.0 236.0,20.0 244.0,20.0 252.0,20.0 260.0,20.0 268.0,20.0 276.0,20.0 284.0,20.0 292.0,20.0 300.0,20.0 308.0,20.0 316.0,20.0 324.0,20.0 332.0,20.0 340.0,20.0 348.0,20.0 356.0,20.0 364.0,20.0 372.0,20.0 380.0,20.0 388.0,20.0 396.0,20.0 404.0,20.0 412.0,20.0 420.0,20.0 428.0,20.0 436.0,20.0 444.0,20.0 452.0,20.0 460.0,20.0 468.0,20.0 476.0,20.0 484.0,20.0 492.0,20.0 500.0,20.0 508.0,20.0 516.0,20.0 524.0,20.0 532.0,20.0 540.0,20.0 548.0,20.0 556.0,20.0 564.0,20.0 572.0,20.0 580.0,20.0 588.0,20.0 596.0,20.0 604.0,20.0 612.0,20.0 620.0,20.0 628.0,20.0 636.0,20.0 644.0,20.0 652.0,20.0 660.0,20.0 668.0,20.0 676.0,20.0 684.0,20.0 692.0,20.0 700.0,20.0 708.0,20.0 716.0,20.0 724.0,20.0 732.0,20.0 740.0,20.0 748.0,20.0" fill="none" stroke="#F57C00" stroke-width="1.5" stroke-linejoin="round" opacity="0.85"/><polyline points="44.0,20.0 52.0,20.0 60.0,20.0 68.0,20.0 76.0,20.0 84.0,20.0 92.0,20.0 100.0,20.0 108.0,20.0 116.0,20.0 124.0,20.0 132.0,20.0 140.0,20.0 148.0,20.0 156.0,20.0 164.0,20.0 172.0,20.0 180.0,20.0 188.0,20.0 196.0,20.0 204.0,20.0 212.0,20.0 220.0,20.0 228.0,20.0 236.0,20.0 244.0,20.0 252.0,20.0 260.0,20.0 268.0,20.0 276.0,20.0 284.0,20.0 292.0,20.0 300.0,20.0 308.0,20.0 316.0,20.0 324.0,20.0 332.0,20.0 340.0,20.0 348.0,20.0 356.0,20.0 364.0,20.0 372.0,20.0 380.0,20.0 388.0,20.0 396.0,20.0 404.0,20.0 412.0,20.0 420.0,20.0 428.0,20.0 436.0,20.0 444.0,20.0 452.0,20.0 460.0,20.0 468.0,20.0 476.0,20.0 484.0,20.0 492.0,20.0 500.0,20.0 508.0,20.0 516.0,20.0 524.0,20.0 532.0,20.0 540.0,20.0 548.0,20.0 556.0,20.0 564.0,20.0 572.0,20.0 580.0,20.0 588.0,20.0 596.0,20.0 604.0,20.0 612.0,20.0 620.0,20.0 628.0,20.0 636.0,20.0 644.0,20.0 652.0,20.0 660.0,20.0 668.0,20.0 676.0,20.0 684.0,20.0 692.0,20.0 700.0,20.0 708.0,20.0 716.0,20.0 724.0,20.0 732.0,20.0 740.0,20.0 748.0,20.0" fill="none" stroke="#D32F2F" stroke-width="1.5" stroke-linejoin="round" opacity="0.85"/><polyline points="44.0,20.0 52.0,20.0 60.0,20.0 68.0,20.0 76.0,20.0 84.0,20.0 92.0,20.0 100.0,20.0 108.0,20.0 116.0,20.0 124.0,20.0 132.0,20.0 140.0,20.0 148.0,20.0 156.0,20.0 164.0,20.0 172.0,20.0 180.0,20.0 188.0,20.0 196.0,20.0 204.0,20.0 212.0,20.0 220.0,20.0 228.0,20.0 236.0,20.0 244.0,20.0 252.0,20.0 260.0,20.0 268.0,20.0 276.0,20.0 284.0,20.0 292.0,20.0 300.0,20.0 308.0,20.0 316.0,20.0 324.0,20.0 332.0,20.0 340.0,20.0 348.0,20.0 356.0,20.0 364.0,20.0 372.0,20.0 380.0,20.0 388.0,20.0 396.0,20.0 404.0,20.0 412.0,20.0 420.0,20.0 428.0,20.0 436.0,20.0 444.0,20.0 452.0,20.0 460.0,20.0 468.0,20.0 476.0,20.0 484.0,20.0 492.0,20.0 500.0,20.0 508.0,20.0 516.0,20.0 524.0,20.0 532.0,20.0 540.0,20.0 548.0,20.0 556.0,20.0 564.0,20.0 572.0,20.0 580.0,20.0 588.0,20.0 596.0,20.0 604.0,20.0 612.0,20.0 620.0,20.0 628.0,20.0 636.0,20.0 644.0,20.0 652.0,20.0 660.0,20.0 668.0,20.0 676.0,20.0 684.0,20.0 692.0,20.0 700.0,20.0 708.0,20.0 716.0,20.0 724.0,20.0 732.0,20.0 740.0,20.0 748.0,20.0" fill="none" stroke="#7B1FA2" stroke-width="1.5" stroke-linejoin="round" opacity="0.85"/><polyline points="44.0,20.0 52.0,20.0 60.0,20.0 68.0,20.0 76.0,20.0 84.0,20.0 92.0,20.0 100.0,20.0 108.0,20.0 116.0,20.0 124.0,20.0 132.0,20.0 140.0,20.0 148.0,20.0 156.0,20.0 164.0,20.0 172.0,20.0 180.0,20.0 188.0,20.0 196.0,20.0 204.0,20.0 212.0,20.0 220.0,20.0 228.0,20.0 236.0,20.0 244.0,20.0 252.0,20.0 260.0,20.0 268.0,20.0 276.0,20.0 284.0,20.0 292.0,20.0 300.0,20.0 308.0,20.0 316.0,20.0 324.0,20.0 332.0,20.0 340.0,20.0 348.0,20.0 356.0,20.0 364.0,20.0 372.0,20.0 380.0,20.0 388.0,20.0 396.0,20.0 404.0,20.0 412.0,20.0 420.0,20.0 428.0,20.0 436.0,20.0 444.0,20.0 452.0,20.0 460.0,20.0 468.0,20.0 476.0,20.0 484.0,20.0 492.0,20.0 500.0,20.0 508.0,20.0 516.0,20.0 524.0,20.0 532.0,20.0 540.0,20.0 548.0,20.0 556.0,20.0 564.0,20.0 572.0,20.0 580.0,20.0 588.0,20.0 596.0,20.0 604.0,20.0 612.0,20.0 620.0,20.0 628.0,20.0 636.0,20.0 644.0,20.0 652.0,20.0 660.0,20.0 668.0,20.0 676.0,20.0 684.0,20.0 692.0,20.0 700.0,20.0 708.0,20.0 716.0,20.0 724.0,20.0 732.0,20.0 740.0,20.0 748.0,20.0" fill="none" stroke="#0097A7" stroke-width="1.5" stroke-linejoin="round" opacity="0.85"/><polyline points="44.0,20.0 52.0,20.0 60.0,20.0 68.0,20.0 76.0,20.0 84.0,20.0 92.0,20.0 100.0,20.0 108.0,20.0 116.0,20.0 124.0,20.0 132.0,20.0 140.0,20.0 148.0,20.0 156.0,20.0 164.0,20.0 172.0,20.0 180.0,20.0 188.0,20.0 196.0,20.0 204.0,20.0 212.0,20.0 220.0,20.0 228.0,20.0 236.0,20.0 244.0,20.0 252.0,20.0 260.0,20.0 268.0,20.0 276.0,20.0 284.0,20.0 292.0,20.0 300.0,20.0 308.0,20.0 316.0,20.0 324.0,20.0 332.0,20.0 340.0,20.0 348.0,20.0 356.0,20.0 364.0,20.0 372.0,20.0 380.0,20.0 388.0,20.0 396.0,20.0 404.0,20.0 412.0,20.0 420.0,20.0 428.0,20.0 436.0,20.0 444.0,20.0 452.0,20.0 460.0,20.0 468.0,20.0 476.0,20.0 484.0,20.0 492.0,20.0 500.0,20.0 508.0,20.0 516.0,20.0 524.0,20.0 532.0,20.0 540.0,20.0 548.0,20.0 556.0,20.0 564.0,20.0 572.0,20.0 580.0,20.0 588.0,20.0 596.0,20.0 604.0,20.0 612.0,20.0 620.0,20.0 628.0,20.0 636.0,20.0 644.0,20.0 652.0,20.0 660.0,20.0 668.0,20.0 676.0,20.0 684.0,20.0 692.0,20.0 700.0,20.0 708.0,20.0 716.0,20.0 724.0,20.0 732.0,20.0 740.0,20.0 748.0,20.0" fill="none" stroke="#F9A825" stroke-width="1.5" stroke-linejoin="round" opacity="0.85"/><polyline points="44.0,20.0 52.0,20.0 60.0,20.0 68.0,20.0 76.0,20.0 84.0,20.0 92.0,20.0 100.0,20.0 108.0,20.0 116.0,20.0 124.0,20.0 132.0,20.0 140.0,20.0 148.0,20.0 156.0,20.0 164.0,20.0 172.0,20.0 180.0,20.0 188.0,20.0 196.0,20.0 204.0,20.0 212.0,20.0 220.0,20.0 228.0,20.0 236.0,20.0 244.0,20.0 252.0,20.0 260.0,20.0 268.0,20.0 276.0,20.0 284.0,20.0 292.0,20.0 300.0,20.0 308.0,20.0 316.0,20.0 324.0,20.0 332.0,20.0 340.0,20.0 348.0,20.0 356.0,20.0 364.0,20.0 372.0,20.0 380.0,20.0 388.0,20.0 396.0,20.0 404.0,20.0 412.0,20.0 420.0,20.0 428.0,20.0 436.0,20.0 444.0,20.0 452.0,20.0 460.0,20.0 468.0,20.0 476.0,20.0 484.0,20.0 492.0,20.0 500.0,20.0 508.0,20.0 516.0,20.0 524.0,20.0 532.0,20.0 540.0,20.0 548.0,20.0 556.0,20.0 564.0,20.0 572.0,20.0 580.0,20.0 588.0,20.0 596.0,20.0 604.0,20.0 612.0,20.0 620.0,20.0 628.0,20.0 636.0,20.0 644.0,20.0 652.0,20.0 660.0,20.0 668.0,20.0 676.0,20.0 684.0,20.0 692.0,20.0 700.0,20.0 708.0,20.0 716.0,20.0 724.0,20.0 732.0,20.0 740.0,20.0 748.0,20.0" fill="none" stroke="#5D4037" stroke-width="1.5" stroke-linejoin="round" opacity="0.85"/><polyline points="44.0,20.0 52.0,20.0 60.0,20.0 68.0,20.0 76.0,20.0 84.0,20.0 92.0,20.0 100.0,20.0 108.0,20.0 116.0,20.0 124.0,20.0 132.0,20.0 140.0,20.0 148.0,20.0 156.0,20.0 164.0,20.0 172.0,20.0 180.0,20.0 188.0,20.0 196.0,20.0 204.0,20.0 212.0,20.0 220.0,20.0 228.0,20.0 236.0,20.0 244.0,20.0 252.0,20.0 260.0,20.0 268.0,20.0 276.0,20.0 284.0,20.0 292.0,20.0 300.0,20.0 308.0,20.0 316.0,20.0 324.0,20.0 332.0,20.0 340.0,20.0 348.0,20.0 356.0,20.0 364.0,20.0 372.0,20.0 380.0,20.0 388.0,20.0 396.0,20.0 404.0,20.0 412.0,20.0 420.0,20.0 428.0,20.0 436.0,20.0 444.0,20.0 452.0,20.0 460.0,20.0 468.0,20.0 476.0,20.0 484.0,20.0 492.0,20.0 500.0,20.0 508.0,20.0 516.0,20.0 524.0,20.0 532.0,20.0 540.0,20.0 548.0,20.0 556.0,20.0 564.0,20.0 572.0,20.0 580.0,20.0 588.0,20.0 596.0,20.0 604.0,20.0 612.0,20.0 620.0,20.0 628.0,20.0 636.0,20.0 644.0,20.0 652.0,20.0 660.0,20.0 668.0,20.0 676.0,20.0 684.0,20.0 692.0,20.0 700.0,20.0 708.0,20.0 716.0,20.0 724.0,20.0 732.0,20.0 740.0,20.0 748.0,20.0" fill="none" stroke="#455A64" stroke-width="1.5" stroke-linejoin="round" opacity="0.85"/><polyline points="44.0,20.0 52.0,20.0 60.0,20.0 68.0,20.0 76.0,20.0 84.0,20.0 92.0,20.0 100.0,20.0 108.0,20.0 116.0,20.0 124.0,20.0 132.0,20.0 140.0,20.0 148.0,20.0 156.0,20.0 164.0,20.0 172.0,20.0 180.0,20.0 188.0,20.0 196.0,20.0 204.0,20.0 212.0,20.0 220.0,20.0 228.0,20.0 236.0,20.0 244.0,20.0 252.0,20.0 260.0,20.0 268.0,20.0 276.0,20.0 284.0,20.0 292.0,20.0 300.0,20.0 308.0,20.0 316.0,20.0 324.0,20.0 332.0,20.0 340.0,20.0 348.0,20.0 356.0,20.0 364.0,20.0 372.0,20.0 380.0,20.0 388.0,20.0 396.0,20.0 404.0,20.0 412.0,20.0 420.0,20.0 428.0,20.0 436.0,20.0 444.0,20.0 452.0,20.0 460.0,20.0 468.0,20.0 476.0,20.0 484.0,20.0 492.0,20.0 500.0,20.0 508.0,20.0 516.0,20.0 524.0,20.0 532.0,20.0 540.0,20.0 548.0,20.0 556.0,20.0 564.0,20.0 572.0,20.0 580.0,20.0 588.0,20.0 596.0,20.0 604.0,20.0 612.0,20.0 620.0,20.0 628.0,20.0 636.0,20.0 644.0,20.0 652.0,20.0 660.0,20.0 668.0,20.0 676.0,20.0 684.0,20.0 692.0,20.0 700.0,20.0 708.0,20.0 716.0,20.0 724.0,20.0 732.0,20.0 740.0,20.0 748.0,20.0" fill="none" stroke="#E91E63" stroke-width="1.5" stroke-linejoin="round" opacity="0.85"/><polyline points="44.0,20.0 52.0,20.0 60.0,20.0 68.0,20.0 76.0,20.0 84.0,20.0 92.0,20.0 100.0,20.0 108.0,20.0 116.0,20.0 124.0,20.0 132.0,20.0 140.0,20.0 148.0,20.0 156.0,20.0 164.0,20.0 172.0,20.0 180.0,20.0 188.0,20.0 196.0,20.0 204.0,20.0 212.0,20.0 220.0,20.0 228.0,20.0 236.0,20.0 244.0,20.0 252.0,20.0 260.0,20.0 268.0,20.0 276.0,20.0 284.0,20.0 292.0,20.0 300.0,20.0 308.0,20.0 316.0,20.0 324.0,20.0 332.0,20.0 340.0,20.0 348.0,20.0 356.0,20.0 364.0,20.0 372.0,20.0 380.0,20.0 388.0,20.0 396.0,20.0 404.0,20.0 412.0,20.0 420.0,20.0 428.0,20.0 436.0,20.0 444.0,20.0 452.0,20.0 460.0,20.0 468.0,20.0 476.0,20.0 484.0,20.0 492.0,20.0 500.0,20.0 508.0,20.0 516.0,20.0 524.0,20.0 532.0,20.0 540.0,20.0 548.0,20.0 556.0,20.0 564.0,20.0 572.0,20.0 580.0,20.0 588.0,20.0 596.0,20.0 604.0,20.0 612.0,20.0 620.0,20.0 628.0,20.0 636.0,20.0 644.0,20.0 652.0,20.0 660.0,20.0 668.0,20.0 676.0,20.0 684.0,20.0 692.0,20.0 700.0,20.0 708.0,20.0 716.0,20.0 724.0,20.0 732.0,20.0 740.0,20.0 748.0,20.0" fill="none" stroke="#00695C" stroke-width="1.5" stroke-linejoin="round" opacity="0.85"/><polyline points="44.0,20.0 52.0,20.0 60.0,20.0 68.0,20.0 76.0,20.0 84.0,20.0 92.0,20.0 100.0,20.0 108.0,20.0 116.0,20.0 124.0,20.0 132.0,20.0 140.0,20.0 148.0,20.0 156.0,20.0 164.0,20.0 172.0,20.0 180.0,20.0 188.0,20.0 196.0,20.0 204.0,20.0 212.0,20.0 220.0,20.0 228.0,20.0 236.0,20.0 244.0,20.0 252.0,20.0 260.0,20.0 268.0,20.0 276.0,20.0 284.0,20.0 292.0,20.0 300.0,20.0 308.0,20.0 316.0,20.0 324.0,20.0 332.0,20.0 340.0,20.0 348.0,20.0 356.0,20.0 364.0,20.0 372.0,20.0 380.0,20.0 388.0,20.0 396.0,20.0 404.0,20.0 412.0,20.0 420.0,20.0 428.0,20.0 436.0,20.0 444.0,20.0 452.0,20.0 460.0,20.0 468.0,20.0 476.0,20.0 484.0,20.0 492.0,20.0 500.0,20.0 508.0,20.0 516.0,20.0 524.0,20.0 532.0,20.0 540.0,20.0 548.0,20.0 556.0,20.0 564.0,20.0 572.0,20.0 580.0,20.0 588.0,20.0 596.0,20.0 604.0,20.0 612.0,20.0 620.0,20.0 628.0,20.0 636.0,20.0 644.0,20.0 652.0,20.0 660.0,20.0 668.0,20.0 676.0,20.0 684.0,20.0 692.0,20.0 700.0,20.0 708.0,20.0 716.0,20.0 724.0,20.0 732.0,20.0 740.0,20.0 748.0,20.0" fill="none" stroke="#FFB300" stroke-width="1.5" stroke-linejoin="round" opacity="0.85"/><polyline points="44.0,20.0 52.0,20.0 60.0,20.0 68.0,20.0 76.0,20.0 84.0,20.0 92.0,20.0 100.0,20.0 108.0,20.0 116.0,20.0 124.0,20.0 132.0,20.0 140.0,20.0 148.0,20.0 156.0,20.0 164.0,20.0 172.0,20.0 180.0,20.0 188.0,20.0 196.0,20.0 204.0,20.0 212.0,20.0 220.0,20.0 228.0,20.0 236.0,20.0 244.0,20.0 252.0,20.0 260.0,20.0 268.0,20.0 276.0,20.0 284.0,20.0 292.0,20.0 300.0,20.0 308.0,20.0 316.0,20.0 324.0,20.0 332.0,20.0 340.0,20.0 348.0,20.0 356.0,20.0 364.0,20.0 372.0,20.0 380.0,20.0 388.0,20.0 396.0,20.0 404.0,20.0 412.0,20.0 420.0,20.0 428.0,20.0 436.0,20.0 444.0,20.0 452.0,20.0 460.0,20.0 468.0,20.0 476.0,20.0 484.0,20.0 492.0,20.0 500.0,20.0 508.0,20.0 516.0,20.0 524.0,20.0 532.0,20.0 540.0,20.0 548.0,20.0 556.0,20.0 564.0,20.0 572.0,20.0 580.0,20.0 588.0,20.0 596.0,20.0 604.0,20.0 612.0,20.0 620.0,20.0 628.0,20.0 636.0,20.0 644.0,20.0 652.0,20.0 660.0,20.0 668.0,20.0 676.0,20.0 684.0,20.0 692.0,20.0 700.0,20.0 708.0,20.0 716.0,20.0 724.0,20.0 732.0,20.0 740.0,20.0 748.0,20.0" fill="none" stroke="#546E7A" stroke-width="1.5" stroke-linejoin="round" opacity="0.85"/><circle cx="756.0" cy="20.0" r="2" fill="#1976D2"/><circle cx="756.0" cy="20.0" r="2" fill="#388E3C"/><circle cx="756.0" cy="20.0" r="2" fill="#F57C00"/><circle cx="756.0" cy="20.0" r="2" fill="#D32F2F"/><circle cx="756.0" cy="20.0" r="2" fill="#7B1FA2"/><circle cx="756.0" cy="20.0" r="2" fill="#0097A7"/><circle cx="756.0" cy="20.0" r="2" fill="#F9A825"/><circle cx="756.0" cy="20.0" r="2" fill="#5D4037"/><circle cx="756.0" cy="20.0" r="2" fill="#455A64"/><circle cx="756.0" cy="20.0" r="2" fill="#E91E63"/><circle cx="756.0" cy="20.0" r="2" fill="#00695C"/><circle cx="756.0" cy="20.0" r="2" fill="#FFB300"/><circle cx="756.0" cy="20.0" r="2" fill="#546E7A"/><circle cx="756.0" cy="20.0" r="2" fill="#1976D2"/>
      <rect x="40" y="230" width="10" height="10" fill="#1976D2" rx="2"/><text x="54" y="239" font-size="10" fill="#444">Admin Dashboard Next</text><rect x="280" y="230" width="10" height="10" fill="#388E3C" rx="2"/><text x="294" y="239" font-size="10" fill="#444">Airbnb Clone</text><rect x="520" y="230" width="10" height="10" fill="#F57C00" rx="2"/><text x="534" y="239" font-size="10" fill="#444">Clock App</text><rect x="40" y="246" width="10" height="10" fill="#D32F2F" rx="2"/><text x="54" y="255" font-size="10" fill="#444">Django Crud React</text><rect x="280" y="246" width="10" height="10" fill="#7B1FA2" rx="2"/><text x="294" y="255" font-size="10" fill="#444">Github History</text><rect x="520" y="246" width="10" height="10" fill="#0097A7" rx="2"/><text x="534" y="255" font-size="10" fill="#444">Movies Search</text><rect x="40" y="262" width="10" height="10" fill="#F9A825" rx="2"/><text x="54" y="271" font-size="10" fill="#444">Netflix Clone</text><rect x="280" y="262" width="10" height="10" fill="#5D4037" rx="2"/><text x="294" y="271" font-size="10" fill="#444">Portfolio Web Template</text><rect x="520" y="262" width="10" height="10" fill="#455A64" rx="2"/><text x="534" y="271" font-size="10" fill="#444">Rest Api Et</text><rect x="40" y="278" width="10" height="10" fill="#E91E63" rx="2"/><text x="54" y="287" font-size="10" fill="#444">Slider Static</text><rect x="280" y="278" width="10" height="10" fill="#00695C" rx="2"/><text x="294" y="287" font-size="10" fill="#444">Tesla Landing</text><rect x="520" y="278" width="10" height="10" fill="#FFB300" rx="2"/><text x="534" y="287" font-size="10" fill="#444">Tetris Javascript</text><rect x="40" y="294" width="10" height="10" fill="#546E7A" rx="2"/><text x="54" y="303" font-size="10" fill="#444">Webpage Gpt</text><rect x="280" y="294" width="10" height="10" fill="#1976D2" rx="2"/><text x="294" y="303" font-size="10" fill="#444">admin-dashboard-next</text><rect x="520" y="294" width="10" height="10" fill="#388E3C" rx="2"/><text x="534" y="303" font-size="10" fill="#444">movies-search</text><rect x="40" y="310" width="10" height="10" fill="#F57C00" rx="2"/><text x="54" y="319" font-size="10" fill="#444">github-history</text><rect x="280" y="310" width="10" height="10" fill="#D32F2F" rx="2"/><text x="294" y="319" font-size="10" fill="#444">airbnb-clone</text><rect x="520" y="310" width="10" height="10" fill="#7B1FA2" rx="2"/><text x="534" y="319" font-size="10" fill="#444">django-crud-react</text><rect x="40" y="326" width="10" height="10" fill="#0097A7" rx="2"/><text x="54" y="335" font-size="10" fill="#444">netflix-clone</text><rect x="280" y="326" width="10" height="10" fill="#F9A825" rx="2"/><text x="294" y="335" font-size="10" fill="#444">portfolio-web-template</text><rect x="520" y="326" width="10" height="10" fill="#5D4037" rx="2"/><text x="534" y="335" font-size="10" fill="#444">clock-app</text><rect x="40" y="342" width="10" height="10" fill="#455A64" rx="2"/><text x="54" y="351" font-size="10" fill="#444">portfolio</text><rect x="280" y="342" width="10" height="10" fill="#E91E63" rx="2"/><text x="294" y="351" font-size="10" fill="#444">tetris-javascript</text><rect x="520" y="342" width="10" height="10" fill="#00695C" rx="2"/><text x="534" y="351" font-size="10" fill="#444">tesla-landing</text><rect x="40" y="358" width="10" height="10" fill="#FFB300" rx="2"/><text x="54" y="367" font-size="10" fill="#444">webpage-gpt</text><rect x="280" y="358" width="10" height="10" fill="#546E7A" rx="2"/><text x="294" y="367" font-size="10" fill="#444">slider-static</text><rect x="520" y="358" width="10" height="10" fill="#1976D2" rx="2"/><text x="534" y="367" font-size="10" fill="#444">rest-api-et</text>
    </svg>