<svg xmlns="http://www.w3.org/2000/svg" width="380" height="110" viewBox="0 0 380 110">
      <rect width="380" height="110" fill="#fafafa" rx="4"/>
      <text x="190" y="13" text-anchor="middle" font-size="10" font-weight="bold" fill="#333">admin-dashboard-next</text>
      <line x1="30" y1="22" x2="30" y2="90" stroke="#e0e0e0" stroke-width="1"/>
      <line x1="30" y1="90" x2="374" y2="90" stroke="#e0e0e0" stroke-width="1"/>
      <line x1="30" y1="22" x2="374" y2="22" stroke="#f0f0f0" stroke-width="1"/>
      <text x="27" y="94" text-anchor="end" font-size="8" fill="#888">0</text><text x="27" y="26" text-anchor="end" font-size="8" fill="#888">6</text>
      <polygon points="31.9,90.0 35.7,90.0 39.6,90.0 43.4,90.0 47.2,90.0 51.0,90.0 54.8,78.7 58.7,78.7 62.5,67.3 66.3,67.3 70.1,67.3 74.0,67.3 77.8,67.3 81.6,67.3 85.4,67.3 89.2,67.3 93.1,67.3 96.9,67.3 100.7,67.3 104.5,67.3 108.4,67.3 112.2,67.3 116.0,67.3 119.8,67.3 123.6,67.3 127.5,67.3 131.3,67.3 135.1,67.3 138.9,67.3 142.8,67.3 146.6,67.3 150.4,67.3 154.2,67.3 158.0,67.3 161.9,67.3 165.7,67.3 169.5,67.3 173.3,67.3 177.2,67.3 181.0,67.3 184.8,67.3 188.6,67.3 192.4,67.3 196.3,67.3 200.1,67.3 203.9,67.3 207.7,67.3 211.6,67.3 215.4,67.3 219.2,67.3 223.0,67.3 226.8,67.3 230.7,67.3 234.5,67.3 238.3,67.3 242.1,67.3 246.0,67.3 249.8,67.3 253.6,67.3 257.4,67.3 261.2,67.3 265.1,67.3 268.9,67.3 272.7,67.3 276.5,67.3 280.4,67.3 284.2,67.3 288.0,67.3 291.8,67.3 295.6,67.3 299.5,67.3 303.3,67.3 307.1,67.3 310.9,67.3 314.8,67.3 318.6,67.3 322.4,67.3 326.2,67.3 330.0,67.3 333.9,67.3 337.7,67.3 341.5,67.3 345.3,67.3 349.2,67.3 353.0,67.3 356.8,67.3 360.6,67.3 364.4,67.3 368.3,67.3 372.1,67.3 372.1,90 31.9,90" fill="#43a047" opacity="0.15"/>
      <polyline points="31.9,90.0 35.7,90.0 39.6,90.0 43.4,90.0 47.2,90.0 51.0,90.0 54.8,78.7 58.7,78.7 62.5,67.3 66.3,67.3 70.1,67.3 74.0,67.3 77.8,67.3 81.6,67.3 85.4,67.3 89.2,67.3 93.1,67.3 96.9,67.3 100.7,67.3 104.5,67.3 108.4,67.3 112.2,67.3 116.0,67.3 119.8,67.3 123.6,67.3 127.5,67.3 131.3,67.3 135.1,67.3 138.9,67.3 142.8,67.3 146.6,67.3 150.4,67.3 154.2,67.3 158.0,67.3 161.9,67.3 165.7,67.3 169.5,67.3 173.3,67.3 177.2,67.3 181.0,67.3 184.8,67.3 188.6,67.3 192.4,67.3 196.3,67.3 200.1,67.3 203.9,67.3 207.7,67.3 211.6,67.3 215.4,67.3 219.2,67.3 223.0,67.3 226.8,67.3 230.7,67.3 234.5,67.3 238.3,67.3 242.1,67.3 246.0,67.3 249.8,67.3 253.6,67.3 257.4,67.3 261.2,67.3 265.1,67.3 268.9,67.3 272.7,67.3 276.5,67.3 280.4,67.3 284.2,67.3 288.0,67.3 291.8,67.3 295.6,67.3 299.5,67.3 303.3,67.3 307.1,67.3 310.9,67.3 314.8,67.3 318.6,67.3 322.4,67.3 326.2,67.3 330.0,67.3 333.9,67.3 337.7,67.3 341.5,67.3 345.3,67.3 349.2,67.3 353.0,67.3 356.8,67.3 360.6,67.3 364.4,67.3 368.3,67.3 372.1,67.3" fill="none" stroke="#43a047" stroke-width="1.5" stroke-linejoin="round"/>
      <polyline points="31.9,33.3 35.7,33.3 39.6,33.3 43.4,33.3 47.2,33.3 51.0,33.3 54.8,44.7 58.7,33.3" fill="none" stroke="#e53935" stroke-width="1.5" stroke-linejoin="round"/>
    </svg>