<svg xmlns="http://www.w3.org/2000/svg" width="380" height="110" viewBox="0 0 380 110">
      <rect width="380" height="110" fill="#fafafa" rx="4"/>
      <text x="190" y="13" text-anchor="middle" font-size="10" font-weight="bold" fill="#333">blog</text>
      <line x1="30" y1="22" x2="30" y2="90" stroke="#e0e0e0" stroke-width="1"/>
      <line x1="30" y1="90" x2="374" y2="90" stroke="#e0e0e0" stroke-width="1"/>
      <line x1="30" y1="22" x2="374" y2="22" stroke="#f0f0f0" stroke-width="1"/>
      <text x="27" y="94" text-anchor="end" font-size="8" fill="#888">0</text><text x="27" y="26" text-anchor="end" font-size="8" fill="#888">10</text>
      <polygon points="234.5,83.2 238.3,83.2 242.1,83.2 246.0,83.2 249.8,83.2 253.6,83.2 257.4,83.2 261.2,83.2 265.1,83.2 268.9,83.2 272.7,83.2 276.5,83.2 280.4,83.2 284.2,83.2 288.0,83.2 291.8,83.2 295.6,83.2 299.5,83.2 303.3,83.2 307.1,83.2 310.9,83.2 314.8,83.2 318.6,83.2 322.4,83.2 326.2,83.2 330.0,83.2 333.9,83.2 337.7,83.2 341.5,83.2 345.3,83.2 349.2,83.2 353.0,83.2 356.8,83.2 360.6,83.2 364.4,83.2 368.3,83.2 372.1,83.2 372.1,90 234.5,90" fill="#43a047" opacity="0.15"/>
      <polyline points="234.5,83.2 238.3,83.2 242.1,83.2 246.0,83.2 249.8,83.2 253.6,83.2 257.4,83.2 261.2,83.2 265.1,83.2 268.9,83.2 272.7,83.2 276.5,83.2 280.4,83.2 284.2,83.2 288.0,83.2 291.8,83.2 295.6,83.2 299.5,83.2 303.3,83.2 307.1,83.2 310.9,83.2 314.8,83.2 318.6,83.2 322.4,83.2 326.2,83.2 330.0,83.2 333.9,83.2 337.7,83.2 341.5,83.2 345.3,83.2 349.2,83.2 353.0,83.2 356.8,83.2 360.6,83.2 364.4,83.2 368.3,83.2 372.1,83.2" fill="none" stroke="#43a047" stroke-width="1.5" stroke-linejoin="round"/>
      <polyline points="253.6,28.8 257.4,28.8 261.2,28.8 265.1,28.8 268.9,28.8 272.7,28.8 276.5,28.8 280.4,28.8 284.2,28.8 288.0,28.8 291.8,28.8 295.6,28.8 299.5,28.8 303.3,28.8 307.1,28.8 310.9,28.8 314.8,28.8 318.6,28.8 322.4,28.8 326.2,28.8 330.0,28.8 333.9,28.8 337.7,28.8 341.5,28.8 345.3,28.8 349.2,28.8 353.0,28.8 356.8,28.8 360.6,28.8 364.4,28.8 368.3,28.8 372.1,28.8" fill="none" stroke="#e53935" stroke-width="1.5" stroke-linejoin="round"/>
    </svg>