<svg xmlns="http://www.w3.org/2000/svg" width="380" height="110" viewBox="0 0 380 110">
      <rect width="380" height="110" fill="#fafafa" rx="4"/>
      <text x="190" y="13" text-anchor="middle" font-size="10" font-weight="bold" fill="#333">movies-search</text>
      <line x1="30" y1="22" x2="30" y2="90" stroke="#e0e0e0" stroke-width="1"/>
      <line x1="30" y1="90" x2="374" y2="90" stroke="#e0e0e0" stroke-width="1"/>
      <line x1="30" y1="22" x2="374" y2="22" stroke="#f0f0f0" stroke-width="1"/>
      <text x="27" y="94" text-anchor="end" font-size="8" fill="#888">0</text><text x="27" y="26" text-anchor="end" font-size="8" fill="#888">3</text>
      <polygon points="31.9,44.7 35.7,44.7 39.6,44.7 43.4,44.7 47.2,44.7 51.0,44.7 54.8,44.7 58.7,44.7 62.5,44.7 66.3,44.7 70.1,44.7 74.0,44.7 77.8,44.7 81.6,44.7 85.4,44.7 89.2,44.7 93.1,44.7 96.9,44.7 100.7,44.7 104.5,44.7 108.4,44.7 112.2,44.7 116.0,44.7 119.8,44.7 123.6,44.7 127.5,90.0 131.3,22.0 135.1,22.0 138.9,22.0 142.8,22.0 146.6,22.0 150.4,22.0 154.2,22.0 158.0,22.0 161.9,22.0 165.7,22.0 169.5,22.0 173.3,22.0 177.2,22.0 181.0,22.0 184.8,22.0 188.6,22.0 192.4,22.0 196.3,22.0 200.1,22.0 203.9,22.0 207.7,22.0 211.6,22.0 215.4,22.0 219.2,22.0 223.0,22.0 226.8,22.0 230.7,22.0 234.5,22.0 238.3,22.0 242.1,22.0 246.0,22.0 249.8,22.0 253.6,22.0 257.4,22.0 261.2,22.0 265.1,22.0 268.9,22.0 272.7,22.0 276.5,22.0 280.4,22.0 284.2,22.0 288.0,22.0 291.8,22.0 295.6,22.0 299.5,22.0 303.3,22.0 307.1,22.0 310.9,22.0 314.8,22.0 318.6,22.0 322.4,22.0 326.2,22.0 330.0,22.0 333.9,22.0 337.7,22.0 341.5,22.0 345.3,22.0 349.2,22.0 353.0,22.0 356.8,22.0 360.6,22.0 364.4,22.0 368.3,22.0 372.1,22.0 372.1,90 31.9,90" fill="#43a047" opacity="0.15"/>
      <polyline points="31.9,44.7 35.7,44.7 39.6,44.7 43.4,44.7 47.2,44.7 51.0,44.7 54.8,44.7 58.7,44.7 62.5,44.7 66.3,44.7 70.1,44.7 74.0,44.7 77.8,44.7 81.6,44.7 85.4,44.7 89.2,44.7 93.1,44.7 96.9,44.7 100.7,44.7 104.5,44.7 108.4,44.7 112.2,44.7 116.0,44.7 119.8,44.7 123.6,44.7 127.5,90.0 131.3,22.0 135.1,22.0 138.9,22.0 142.8,22.0 146.6,22.0 150.4,22.0 154.2,22.0 158.0,22.0 161.9,22.0 165.7,22.0 169.5,22.0 173.3,22.0 177.2,22.0 181.0,22.0 184.8,22.0 188.6,22.0 192.4,22.0 196.3,22.0 200.1,22.0 203.9,22.0 207.7,22.0 211.6,22.0 215.4,22.0 219.2,22.0 223.0,22.0 226.8,22.0 230.7,22.0 234.5,22.0 238.3,22.0 242.1,22.0 246.0,22.0 249.8,22.0 253.6,22.0 257.4,22.0 261.2,22.0 265.1,22.0 268.9,22.0 272.7,22.0 276.5,22.0 280.4,22.0 284.2,22.0 288.0,22.0 291.8,22.0 295.6,22.0 299.5,22.0 303.3,22.0 307.1,22.0 310.9,22.0 314.8,22.0 318.6,22.0 322.4,22.0 326.2,22.0 330.0,22.0 333.9,22.0 337.7,22.0 341.5,22.0 345.3,22.0 349.2,22.0 353.0,22.0 356.8,22.0 360.6,22.0 364.4,22.0 368.3,22.0 372.1,22.0" fill="none" stroke="#43a047" stroke-width="1.5" stroke-linejoin="round"/>
      <circle cx="127.5" cy="44.7" r="2" fill="#e53935"/>
    </svg>